<svg width="1063" height="1288" viewBox="0 0 1063 1288" fill="none" xmlns="http://www.w3.org/2000/svg">
<path fill-rule="evenodd" clip-rule="evenodd" d="M1052.98 649.318C1038.25 738.51 973.582 807.94 930.073 887.979C883.843 973.024 860.866 1069.98 788.409 1136.02C705.843 1211.28 605.718 1282.29 491.935 1287.35C376.969 1292.46 266.328 1234.12 178.022 1163.17C95.9169 1097.2 54.9319 999.044 14.6097 903.843C-21.8491 817.763 -27.6278 727.31 -45.2766 635.96C-67.2476 522.239 -139.899 409.092 -102.188 299.301C-63.6119 186.989 44.1382 104.718 154.935 53.062C263.099 2.63265 391.413 -15.6082 507.409 15.0888C615.393 43.6658 673.293 151.834 764.451 214.364C846.277 270.494 962.511 282.892 1016.53 364.327C1071.03 446.483 1068.85 553.176 1052.98 649.318Z" fill="#DC3131" fill-opacity="0.12"/>
</svg>
