<svg width="664" height="678" viewBox="0 0 664 678" fill="none" xmlns="http://www.w3.org/2000/svg">
<rect x="162.875" y="117.127" width="310.021" height="498.875" rx="11" fill="white" stroke="#313031" stroke-width="2"/>
<path d="M162.875 128.127C162.875 122.052 167.8 117.127 173.875 117.127H460.723C466.798 117.127 471.723 122.052 471.723 128.127V157.355H162.875V128.127Z" fill="#FFE281" stroke="#313031" stroke-width="2"/>
<rect x="274.312" y="132.377" width="80.1107" height="9.7301" rx="4.86505" fill="#DFDFDF" stroke="#313031" stroke-width="2"/>
<circle cx="441.639" cy="137.829" r="5.45156" fill="#DFDFDF" stroke="#313031" stroke-width="2"/>
<rect x="190.027" y="215.832" width="255.716" height="10.5571" fill="#FFB5C6"/>
<rect x="190.027" y="235.773" width="255.716" height="10.5571" fill="#FFB5C6"/>
<rect x="190.027" y="316.711" width="113.782" height="10.5571" fill="#FFB5C6"/>
<rect x="190.027" y="335.48" width="113.782" height="10.5571" fill="#FFB5C6"/>
<rect x="190.027" y="354.248" width="113.782" height="10.5571" fill="#FFB5C6"/>
<rect x="190.027" y="373.016" width="113.782" height="10.5571" fill="#FFB5C6"/>
<rect x="190.027" y="484.453" width="254.543" height="10.5571" fill="#FFB5C6"/>
<rect x="190.027" y="503.221" width="254.543" height="10.5571" fill="#FFB5C6"/>
<rect x="190.027" y="391.785" width="73.8997" height="10.5571" fill="#FFB5C6"/>
<rect x="190.027" y="255.715" width="119.647" height="10.5571" fill="#FFB5C6"/>
<rect x="190.027" y="185.334" width="73.8997" height="21.1142" fill="#7C8AFF"/>
<rect x="190.027" y="287.387" width="103.225" height="19.9412" fill="#7C8AFF"/>
<rect x="190.027" y="429.32" width="70.3806" height="19.9412" fill="#7C8AFF"/>
<rect x="190.027" y="453.953" width="119.647" height="19.9412" fill="#7C8AFF"/>
<rect x="267.445" y="429.32" width="137.242" height="19.9412" fill="#7C8AFF"/>
<path d="M162.875 566.391H471.723V605.003C471.723 611.078 466.798 616.003 460.723 616.003H173.875C167.8 616.003 162.875 611.078 162.875 605.003V566.391Z" fill="#FFE281" stroke="#313031" stroke-width="2"/>
<circle cx="314.954" cy="591.782" r="16.0086" stroke="#313031" stroke-width="2"/>
<circle cx="314.367" cy="591.195" r="8.21107" fill="#313031"/>
<rect x="323.578" y="288.387" width="121.166" height="112.955" fill="white" stroke="#313031" stroke-width="2"/>
<rect x="317.711" y="283.695" width="12.0761" height="12.0761" fill="white" stroke="#313031" stroke-width="2"/>
<rect x="317.711" y="392.785" width="12.0761" height="12.0761" fill="white" stroke="#313031" stroke-width="2"/>
<rect x="439.707" y="392.785" width="12.0761" height="12.0761" fill="white" stroke="#313031" stroke-width="2"/>
<rect x="439.707" y="283.695" width="12.0761" height="12.0761" fill="white" stroke="#313031" stroke-width="2"/>
<rect x="336.652" y="302.635" width="14.0761" height="9.38408" fill="#FFB5C6"/>
<rect x="336.652" y="382.4" width="37.5363" height="9.38408" fill="#FFB5C6"/>
<circle cx="384.162" cy="344.277" r="18.1817" fill="#1F43C3" fill-opacity="0.61"/>
<path d="M414.074 344.864C414.074 338.832 412.319 332.935 409.032 327.92C405.746 322.904 401.074 318.995 395.609 316.687C390.143 314.378 384.129 313.774 378.326 314.951C372.524 316.128 367.194 319.033 363.011 323.298C358.828 327.563 355.979 332.998 354.825 338.914C353.671 344.83 354.263 350.962 356.527 356.535C358.791 362.108 362.625 366.871 367.544 370.222C372.463 373.573 378.246 375.362 384.162 375.362V371.136C379.065 371.136 374.083 369.596 369.846 366.709C365.609 363.822 362.306 359.718 360.355 354.918C358.405 350.117 357.895 344.834 358.889 339.738C359.883 334.641 362.338 329.96 365.941 326.286C369.545 322.611 374.136 320.109 379.135 319.095C384.133 318.082 389.314 318.602 394.023 320.59C398.731 322.579 402.755 325.946 405.587 330.267C408.418 334.588 409.929 339.667 409.929 344.864H414.074Z" fill="#313031"/>
<path d="M7.03906 238.391C7.03906 231.763 12.4116 226.391 19.0391 226.391H216.738C223.365 226.391 228.738 231.763 228.738 238.391V332.865C228.738 339.492 223.365 344.865 216.738 344.865H19.0391C12.4117 344.865 7.03906 339.492 7.03906 332.865V238.391Z" fill="#162D80" fill-opacity="0.26"/>
<path d="M1 230.18C1 224.105 5.92487 219.18 12 219.18H209.699C215.774 219.18 220.699 224.105 220.699 230.18V325.827C220.699 331.902 215.774 336.827 209.699 336.827H12C5.92488 336.827 1 331.902 1 325.827V230.18Z" fill="white" stroke="#313031" stroke-width="2"/>
<path d="M64.7749 291.939H68.3376V300.368H78.0121V291.939H81.5749V312.215H78.0121V303.67H68.3376V312.215H64.7749V291.939ZM89.1616 295.241H82.7312V291.939H99.1836V295.241H92.7533V312.215H89.1616V295.241ZM102.962 291.939H106.756L112.926 301.527L119.096 291.939H122.89V312.215H119.327V297.674L112.926 307.233H112.81L106.467 297.732V312.215H102.962V291.939ZM128.109 291.939H131.671V308.971H142.331V312.215H128.109V291.939Z" fill="#313031"/>
<rect x="18.7656" y="244.996" width="16.3601" height="1.8877" transform="rotate(-45 18.7656 244.996)" fill="#323232"/>
<rect width="16.3601" height="1.8877" transform="matrix(0.707107 0.707107 0.707107 -0.707107 18.7656 234.764)" fill="#323232"/>
<path d="M74.4844 269.791L102.05 241.053L121.991 272.138L153.663 255.715" stroke="#313031" stroke-width="3"/>
<circle cx="70.966" cy="272.724" r="4.27855" fill="white" stroke="#313031" stroke-width="2"/>
<circle cx="101.466" cy="241.054" r="4.27855" fill="white" stroke="#313031" stroke-width="2"/>
<circle cx="122.579" cy="272.724" r="4.27855" fill="white" stroke="#313031" stroke-width="2"/>
<circle cx="154.251" cy="257.476" r="4.27855" fill="white" stroke="#313031" stroke-width="2"/>
<path d="M38.707 421.381C38.707 414.753 44.0796 409.381 50.707 409.381H216.735C223.362 409.381 228.735 414.753 228.735 421.381V666C228.735 672.628 223.362 678 216.735 678H50.707C44.0796 678 38.707 672.628 38.707 666V421.381Z" fill="#162D80" fill-opacity="0.26"/>
<rect x="25.6328" y="403.344" width="193.893" height="265.446" rx="11" fill="white" stroke="#313031" stroke-width="2"/>
<circle cx="121.992" cy="476.244" r="38.8824" stroke="#313031" stroke-width="2"/>
<circle cx="121.992" cy="463.339" r="11.7301" fill="#313031"/>
<path fill-rule="evenodd" clip-rule="evenodd" d="M127.138 513.78C125.456 514.008 123.74 514.126 121.996 514.126C120.252 514.126 118.535 514.008 116.854 513.78H127.138ZM143.628 507.346C144.051 506.238 144.283 505.036 144.283 503.78V494.263C144.283 486.255 137.791 479.763 129.783 479.763H116.554C108.546 479.763 102.054 486.255 102.054 494.263V505.78C102.054 506.857 102.267 507.885 102.653 508.823C91.5519 502.218 84.1133 490.099 84.1133 476.244C84.1133 455.322 101.074 438.361 121.996 438.361C142.917 438.361 159.878 455.322 159.878 476.244C159.878 489.123 153.451 500.501 143.628 507.346ZM140.609 511.525C153.258 504.838 161.878 491.548 161.878 476.244C161.878 454.217 144.022 436.361 121.996 436.361C99.9692 436.361 82.1133 454.217 82.1133 476.244C82.1133 498.27 99.9692 516.126 121.996 516.126C126.86 516.126 131.521 515.255 135.831 513.661C137.626 513.382 139.263 512.625 140.609 511.525ZM140.609 511.525C141.949 510.429 143 508.992 143.628 507.346C138.825 510.693 133.21 512.956 127.138 513.78H134.283C134.809 513.78 135.326 513.739 135.831 513.661C137.478 513.052 139.073 512.337 140.609 511.525ZM102.653 508.823C106.918 511.36 111.723 513.084 116.854 513.78H110.054C106.713 513.78 103.851 511.732 102.653 508.823Z" fill="#313031"/>
<rect x="40.8828" y="546.451" width="12.0761" height="12.0761" fill="white" stroke="#313031" stroke-width="2"/>
<rect x="40.8828" y="609.793" width="12.0761" height="12.0761" fill="white" stroke="#313031" stroke-width="2"/>
<rect x="64.5156" y="547.797" width="129.031" height="10.5571" fill="#FFB5C6"/>
<rect x="64.5156" y="564.219" width="129.031" height="10.5571" fill="#FFB5C6"/>
<rect x="64.5156" y="611.139" width="129.031" height="10.5571" fill="#FFB5C6"/>
<rect x="64.5156" y="628.734" width="117.301" height="10.5571" fill="#7C8AFF"/>
<rect x="64.5156" y="580.641" width="84.4567" height="10.5571" fill="#FFB5C6"/>
<rect x="41.0547" y="429.16" width="16.3601" height="1.8877" transform="rotate(-45 41.0547 429.16)" fill="#313031"/>
<rect width="16.3601" height="1.8877" transform="matrix(0.707107 0.707107 0.707107 -0.707107 41.0547 418.928)" fill="#313031"/>
<rect x="438.707" y="186.508" width="125.512" height="195.893" rx="12" fill="#162D80" fill-opacity="0.26"/>
<rect x="433.844" y="181.643" width="123.512" height="193.893" rx="11" fill="white" stroke="#313031" stroke-width="2"/>
<rect x="450.438" y="206.287" width="16.3601" height="1.8877" transform="rotate(-45 450.438 206.287)" fill="#313031"/>
<rect width="16.3601" height="1.8877" transform="matrix(0.707107 0.707107 0.707107 -0.707107 450.438 196.055)" fill="#313031"/>
<path d="M506.742 270.965L525.51 278.183L508.558 289.733" stroke="#313031" stroke-width="3"/>
<path d="M484.457 270.965L466.862 278.183L482.754 289.733" stroke="#313031" stroke-width="3"/>
<path d="M501.464 265.686L489.734 293.251" stroke="#313031" stroke-width="3"/>
<rect x="441.055" y="434.012" width="222.872" height="120.82" rx="12" fill="#162D80" fill-opacity="0.26"/>
<rect x="433.844" y="427.975" width="220.872" height="118.82" rx="11" fill="white" stroke="#313031" stroke-width="2"/>
<rect x="449.266" y="453.791" width="16.3601" height="1.8877" transform="rotate(-45 449.266 453.791)" fill="#313031"/>
<rect width="16.3601" height="1.8877" transform="matrix(0.707107 0.707107 0.707107 -0.707107 449.266 443.559)" fill="#313031"/>
<path d="M501.141 497.317C498.552 494.678 497.258 491.442 497.258 487.609V487.533C497.258 483.676 498.539 480.427 501.103 477.788C503.717 475.097 507.016 473.752 511.001 473.752C515.087 473.752 518.564 475.135 521.432 477.902L518.424 481.366C516.038 479.158 513.551 478.054 510.963 478.054C508.45 478.054 506.356 478.968 504.681 480.795C503.006 482.572 502.169 484.792 502.169 487.457V487.533C502.169 490.173 502.994 492.393 504.643 494.195C506.344 496.048 508.45 496.974 510.963 496.974C513.627 496.974 516.178 495.832 518.614 493.548L521.622 496.594C518.627 499.741 515.023 501.314 510.81 501.314C506.953 501.314 503.73 499.982 501.141 497.317ZM533.015 489.551H525.706V485.325H533.015V478.092H537.355V485.325H544.664V489.551H537.355V496.822H533.015V489.551ZM557.143 489.551H549.834V485.325H557.143V478.092H561.483V485.325H568.792V489.551H561.483V496.822H557.143V489.551Z" fill="#313031"/>
<rect x="383.574" y="602.928" width="258.062" height="36.3633" rx="15.5" fill="#162D80" fill-opacity="0.26"/>
<rect x="376.363" y="599.236" width="256.062" height="34.3633" rx="14.5" fill="white" stroke="#313031" stroke-width="2"/>
<rect x="394.129" y="622.707" width="16.3601" height="1.8877" transform="rotate(-45 394.129 622.707)" fill="#313031"/>
<rect width="16.3601" height="1.8877" transform="matrix(0.707107 0.707107 0.707107 -0.707107 394.129 612.475)" fill="#313031"/>
<rect x="421.109" y="611.139" width="197.066" height="11.7301" rx="5.86505" fill="#526DD0"/>
<path d="M421.109 617.004C421.109 613.765 423.735 611.139 426.974 611.139H556.006V622.869H426.974C423.735 622.869 421.109 620.243 421.109 617.004Z" fill="#FFB5C6"/>
<rect x="317.883" y="8.21094" width="341.346" height="123.166" rx="13" fill="#162D80" fill-opacity="0.26"/>
<rect x="310.672" y="1" width="339.346" height="121.166" rx="12" fill="white" fill-opacity="0.99" stroke="#323232" stroke-width="2"/>
<rect x="351.898" y="16.4219" width="276.83" height="10.5571" fill="#7C8AFF"/>
<rect x="351.898" y="36.3633" width="276.83" height="10.5571" fill="#FFB5C6"/>
<rect x="351.898" y="96.1875" width="224.045" height="10.5571" fill="#FFB5C6"/>
<rect x="477.414" y="76.2461" width="140.761" height="10.5571" fill="#FFB5C6"/>
<rect x="351.898" y="56.3047" width="145.453" height="10.5571" fill="#FFB5C6"/>
<rect x="351.898" y="76.2461" width="118.474" height="10.5571" fill="#7C8AFF"/>
<rect x="503.219" y="56.3047" width="114.955" height="10.5571" fill="#7C8AFF"/>
<rect x="323.75" y="27.748" width="19.3346" height="2.23092" transform="rotate(-45 323.75 27.748)" fill="#323232"/>
<rect width="19.3346" height="2.23092" transform="matrix(0.707107 0.707107 0.707107 -0.707107 323.75 15.6543)" fill="#323232"/>
</svg>
