<svg width="990" height="1029" viewBox="0 0 990 1029" fill="none" xmlns="http://www.w3.org/2000/svg">
<path fill-rule="evenodd" clip-rule="evenodd" d="M24.4561 309.885C48.4539 222.729 120.05 160.463 171.712 85.4276C226.605 5.69889 259.621 -88.3108 338.604 -146.395C428.607 -212.583 535.625 -272.697 649.312 -265.798C764.18 -258.827 868.094 -189.204 948.473 -109.385C1023.21 -35.1726 1053.67 66.7421 1083.79 165.647C1111.02 255.075 1107.28 345.635 1115.26 438.332C1125.18 553.73 1185.57 673.872 1136.55 779.103C1086.41 886.75 970.629 957.269 855.027 997.023C742.171 1035.83 612.651 1040.52 500.514 997.826C396.122 958.083 349.884 844.441 265.786 772.696C190.296 708.296 76.0024 683.778 30.819 597.127C-14.7642 509.709 -1.41173 403.833 24.4561 309.885Z" fill="#3137DC" fill-opacity="0.1"/>
</svg>
