<svg width="50" height="50" xmlns="http://www.w3.org/2000/svg">

 <g>
  <title>Layer 1</title>
  <path fill="#ffffff" id="svg_1" d="m31,2c-9,0 -17.48828,3.82422 -21.92187,11.5c-3.13672,5.4375 -3.95313,12.01563 -2.23438,18.04297c1.65625,5.8125 5.43359,10.55078 10.64453,13.34766c3.9375,2.10937 8.51172,3.10937 12.51172,3.10937c4.58594,0 8.57031,-1.32812 12.57422,-4.07812c0.37891,-0.26172 0.54297,-0.73047 0.41016,-1.16797c-0.13672,-0.4375 -0.53907,-0.73438 -0.9961,-0.73828c-3.63672,-0.01954 -7.60937,-1.82032 -10.8125,-3.98047c-2.16406,0.13672 -7.13281,0.61328 -9.67578,-0.03516c-1.71094,-0.4375 -4.41016,-1.70312 -5.51562,-4.9375c3.75781,2.75 8.41796,2.02344 11.41796,1.94141c-0.98828,-0.95703 -1.73828,-1.86328 -2.13671,-2.59766l2.26953,-1.51562c0.30468,-0.19922 0.47656,-0.55079 0.44531,-0.91016c-0.03125,-0.36328 -0.25391,-0.68359 -0.58594,-0.83203c-0.01562,-0.00781 -0.85937,-0.40625 -1.83594,-1.33985c0.29688,-0.32031 0.55079,-0.71484 0.73438,-1.16406c0.44922,-1.08594 0.6875,-2.57422 0.70703,-4.63281c0.00391,-0.26953 -0.10156,-0.52734 -0.28906,-0.71484c-0.1875,-0.19141 -0.44531,-0.29688 -0.71094,-0.29688l-3,0l0,2l-0.19141,0c-0.0039,0 0,0 0,0l-0.87109,0c-0.21484,3.33203 -1.39062,5.05859 -2.95312,5.05859c-1.52735,0 -2.75391,-1.6875 -2.95704,-5.05859l-4.02734,0c-0.55078,0 -1,-0.44922 -1,-1c0,-0.55469 0.44922,-1 1,-1l11.03125,0c-0.03125,-8.54687 5.73047,-15.19141 8.53516,-17.07422c0.36718,-0.24609 0.53906,-0.69922 0.42968,-1.1289c-0.11328,-0.42969 -0.55468,-0.76172 -0.99609,-0.79688z"/>
 </g>
</svg>