<svg width="414" height="408" viewBox="0 0 414 408" fill="none" xmlns="http://www.w3.org/2000/svg">
<rect x="0.625" width="413.249" height="385" rx="14.5283" fill="#1A1A1A"/>
<path d="M54.0246 93.0311H60.1072C61.6698 93.0311 62.8514 93.4314 63.6521 94.2321C64.259 94.839 64.5625 95.5881 64.5625 96.4791V96.5179C64.5625 97.8609 63.9168 98.8682 62.6254 99.5398C64.4205 100.134 65.318 101.231 65.318 102.833V102.872C65.318 104.06 64.8595 104.983 63.9426 105.642C63.0645 106.274 61.8506 106.591 60.3009 106.591H54.0246V93.0311ZM62.1799 96.8665C62.1799 95.7172 61.3857 95.1425 59.7972 95.1425H56.3685V98.7455H59.6229C61.3275 98.7455 62.1799 98.1321 62.1799 96.9053V96.8665ZM62.9353 102.581C62.9353 101.367 62.0055 100.76 60.1459 100.76H56.3685V104.479H60.3202C62.0636 104.479 62.9353 103.859 62.9353 102.62V102.581ZM68.0044 93.0311H70.387V104.421H77.5155V106.591H68.0044V93.0311ZM80.5975 104.77C79.2803 103.427 78.6217 101.787 78.6217 99.8497V99.8109C78.6217 97.8609 79.2867 96.2144 80.6169 94.8713C81.9729 93.4895 83.6775 92.7986 85.7308 92.7986C87.7971 92.7986 89.4953 93.4831 90.8254 94.852C92.1427 96.1821 92.8013 97.8222 92.8013 99.7722V99.8109C92.8013 101.761 92.1362 103.408 90.8061 104.751C89.4501 106.132 87.7454 106.823 85.6921 106.823C83.6259 106.823 81.9277 106.139 80.5975 104.77ZM89.0239 103.22C89.8763 102.303 90.3024 101.18 90.3024 99.8497V99.8109C90.3024 98.455 89.8698 97.3185 89.0046 96.4016C88.1393 95.4589 87.0352 94.9875 85.6921 94.9875C84.3749 94.9875 83.2772 95.4525 82.399 96.3823C81.5467 97.2862 81.1205 98.4162 81.1205 99.7722V99.8109C81.1205 101.167 81.5532 102.297 82.4184 103.201C83.2836 104.144 84.3878 104.615 85.7308 104.615C87.061 104.615 88.1587 104.15 89.0239 103.22ZM96.9972 104.809C95.7188 103.504 95.0795 101.851 95.0795 99.8497V99.8109C95.0795 97.8868 95.7317 96.2402 97.036 94.8713C98.379 93.4895 100.058 92.7986 102.072 92.7986C104.087 92.7986 105.824 93.412 107.283 94.6389L105.772 96.4404C104.636 95.4718 103.37 94.9875 101.976 94.9875C100.736 94.9875 99.6898 95.4589 98.8375 96.4016C97.9981 97.3444 97.5784 98.4679 97.5784 99.7722V99.8109C97.5784 101.206 97.9981 102.361 98.8375 103.278C99.7157 104.195 100.833 104.654 102.189 104.654C103.454 104.654 104.546 104.311 105.462 103.627V101.089H101.995V99.0167H107.768V104.712C106.127 106.119 104.242 106.823 102.111 106.823C100.019 106.823 98.3145 106.152 96.9972 104.809ZM112.188 104.809C110.909 103.504 110.27 101.851 110.27 99.8497V99.8109C110.27 97.8868 110.922 96.2402 112.226 94.8713C113.569 93.4895 115.248 92.7986 117.263 92.7986C119.277 92.7986 121.014 93.412 122.474 94.6389L120.963 96.4404C119.826 95.4718 118.561 94.9875 117.166 94.9875C115.926 94.9875 114.88 95.4589 114.028 96.4016C113.188 97.3444 112.769 98.4679 112.769 99.7722V99.8109C112.769 101.206 113.188 102.361 114.028 103.278C114.906 104.195 116.023 104.654 117.379 104.654C118.645 104.654 119.736 104.311 120.653 103.627V101.089H117.185V99.0167H122.958V104.712C121.318 106.119 119.432 106.823 117.302 106.823C115.21 106.823 113.505 106.152 112.188 104.809ZM126.061 93.0311H136.114V95.1619H128.443V98.6874H135.243V100.818H128.443V104.46H136.211V106.591H126.061V93.0311ZM139.038 93.0311H145.082C146.773 93.0311 148.078 93.4831 148.995 94.387C149.744 95.149 150.118 96.124 150.118 97.3121V97.3508C150.118 99.4687 149.046 100.838 146.903 101.457L150.564 106.591H147.736L144.404 101.864H141.421V106.591H139.038V93.0311ZM144.907 99.7528C145.747 99.7528 146.425 99.5462 146.941 99.133C147.445 98.7197 147.697 98.1709 147.697 97.4864V97.4477C147.697 95.9496 146.761 95.2006 144.888 95.2006H141.421V99.7528H144.907ZM151.496 93.0311H154.13L158.218 103.453L162.286 93.0311H164.862L159.244 106.688H157.133L151.496 93.0311ZM167.322 93.0311H169.705V106.591H167.322V93.0311ZM173.335 93.0311H175.717V104.421H182.846V106.591H173.335V93.0311ZM185.328 93.0311H187.711V104.421H194.839V106.591H185.328V93.0311ZM197.321 93.0311H207.375V95.1619H199.704V98.6874H206.503V100.818H199.704V104.46H207.472V106.591H197.321V93.0311ZM213.32 93.0311H215.896L219.131 103.085L222.463 92.9923H224.477L227.809 103.085L231.044 93.0311H233.543L228.836 106.688H226.763L223.431 96.944L220.099 106.688H218.046L213.32 93.0311ZM235.988 93.0311H246.041V95.1619H238.37V98.6874H245.17V100.818H238.37V104.46H246.138V106.591H235.988V93.0311ZM248.965 93.0311H255.047C256.61 93.0311 257.792 93.4314 258.592 94.2321C259.199 94.839 259.503 95.5881 259.503 96.4791V96.5179C259.503 97.8609 258.857 98.8682 257.566 99.5398C259.361 100.134 260.258 101.231 260.258 102.833V102.872C260.258 104.06 259.8 104.983 258.883 105.642C258.005 106.274 256.791 106.591 255.241 106.591H248.965V93.0311ZM257.12 96.8665C257.12 95.7172 256.326 95.1425 254.738 95.1425H251.309V98.7455H254.563C256.268 98.7455 257.12 98.1321 257.12 96.9053V96.8665ZM257.876 102.581C257.876 101.367 256.946 100.76 255.086 100.76H251.309V104.479H255.261C257.004 104.479 257.876 103.859 257.876 102.62V102.581ZM273.291 92.9342H275.5L281.466 106.591H278.948L277.572 103.317H271.161L269.766 106.591H267.325L273.291 92.9342ZM276.701 101.206L274.357 95.7818L272.032 101.206H276.701ZM283.791 93.0311H289.138C290.713 93.0311 291.972 93.4443 292.915 94.2708C293.832 95.1102 294.29 96.2079 294.29 97.5639V97.6026C294.29 99.0748 293.761 100.224 292.702 101.051C291.72 101.838 290.442 102.232 288.866 102.232H286.174V106.591H283.791V93.0311ZM288.944 100.082C289.835 100.082 290.545 99.8561 291.075 99.4042C291.604 98.9522 291.869 98.371 291.869 97.6608V97.622C291.869 96.8472 291.604 96.2467 291.075 95.8205C290.545 95.4073 289.835 95.2006 288.944 95.2006H286.174V100.082H288.944ZM296.731 93.0311H302.077C303.652 93.0311 304.912 93.4443 305.854 94.2708C306.771 95.1102 307.23 96.2079 307.23 97.5639V97.6026C307.23 99.0748 306.7 100.224 305.641 101.051C304.66 101.838 303.381 102.232 301.806 102.232H299.113V106.591H296.731V93.0311ZM301.883 100.082C302.774 100.082 303.485 99.8561 304.014 99.4042C304.544 98.9522 304.808 98.371 304.808 97.6608V97.622C304.808 96.8472 304.544 96.2467 304.014 95.8205C303.485 95.4073 302.774 95.2006 301.883 95.2006H299.113V100.082H301.883Z" fill="white"/>
<rect x="39.3633" y="33.0928" width="161.426" height="33.8994" rx="16.9497" fill="#9C170E"/>
<path d="M64.7935 54.5546L66.3626 52.9274C67.202 53.9993 68.1124 54.5352 69.0939 54.5352C70.5273 54.5352 71.2441 53.6441 71.2441 51.862V42.9901H73.7042V51.9395C73.7042 53.4892 73.278 54.6902 72.4257 55.5425C71.625 56.3432 70.5273 56.7435 69.1326 56.7435C67.3118 56.7435 65.8654 56.0139 64.7935 54.5546ZM77.1052 55.9493C76.382 55.3682 76.0204 54.5869 76.0204 53.6054V53.5667C76.0204 52.4948 76.4143 51.6683 77.202 51.0872C77.9381 50.5448 78.9519 50.2736 80.2433 50.2736C81.2119 50.2736 82.1288 50.4156 82.994 50.6997V50.4479C82.994 48.9628 82.1481 48.2202 80.4564 48.2202C79.5395 48.2202 78.5645 48.4333 77.5314 48.8595L76.9115 47.0192C78.1383 46.4639 79.4233 46.1863 80.7663 46.1863C82.2902 46.1863 83.4202 46.5672 84.1563 47.3292C84.8924 48.0394 85.2604 49.0919 85.2604 50.4867V56.5498H82.9746V55.2713C82.1352 56.2657 81.0246 56.7629 79.6428 56.7629C78.6355 56.7629 77.7896 56.4917 77.1052 55.9493ZM82.2579 54.4577C82.7745 54.0574 83.0327 53.5279 83.0327 52.8693V52.1719C82.3354 51.9007 81.5605 51.7652 80.7082 51.7652C79.1069 51.7652 78.3062 52.3334 78.3062 53.4698V53.5085C78.3062 53.9735 78.4999 54.3544 78.8873 54.6514C79.2618 54.9226 79.7332 55.0582 80.3014 55.0582C81.0892 55.0582 81.7413 54.8581 82.2579 54.4577ZM86.7207 46.3219H89.2389L91.9896 53.8379L94.7596 46.3219H97.2198L93.0356 56.6273H90.9242L86.7207 46.3219ZM99.1246 55.9493C98.4015 55.3682 98.0399 54.5869 98.0399 53.6054V53.5667C98.0399 52.4948 98.4337 51.6683 99.2215 51.0872C99.9576 50.5448 100.971 50.2736 102.263 50.2736C103.231 50.2736 104.148 50.4156 105.013 50.6997V50.4479C105.013 48.9628 104.168 48.2202 102.476 48.2202C101.559 48.2202 100.584 48.4333 99.5508 48.8595L98.9309 47.0192C100.158 46.4639 101.443 46.1863 102.786 46.1863C104.31 46.1863 105.44 46.5672 106.176 47.3292C106.912 48.0394 107.28 49.0919 107.28 50.4867V56.5498H104.994V55.2713C104.155 56.2657 103.044 56.7629 101.662 56.7629C100.655 56.7629 99.8091 56.4917 99.1246 55.9493ZM104.277 54.4577C104.794 54.0574 105.052 53.5279 105.052 52.8693V52.1719C104.355 51.9007 103.58 51.7652 102.728 51.7652C101.126 51.7652 100.326 52.3334 100.326 53.4698V53.5085C100.326 53.9735 100.519 54.3544 100.907 54.6514C101.281 54.9226 101.753 55.0582 102.321 55.0582C103.109 55.0582 103.761 54.8581 104.277 54.4577ZM109.448 54.574L110.881 52.8693C112.224 54.0445 113.651 54.6321 115.162 54.6321C115.898 54.6321 116.486 54.4706 116.925 54.1478C117.351 53.8379 117.564 53.4311 117.564 52.9274V52.8887C117.564 52.385 117.371 51.9911 116.983 51.707C116.544 51.3971 115.718 51.1001 114.504 50.816C112.902 50.4156 111.792 49.9636 111.172 49.46C110.384 48.8401 109.99 47.9426 109.99 46.7674V46.7287C109.99 45.5664 110.423 44.6172 111.288 43.8811C112.166 43.1579 113.277 42.7963 114.62 42.7963C116.492 42.7963 118.132 43.3646 119.54 44.501L118.262 46.3025C117.009 45.3727 115.782 44.9078 114.581 44.9078C113.91 44.9078 113.367 45.0628 112.954 45.3727C112.567 45.6568 112.373 46.0378 112.373 46.5156V46.5543C112.373 47.0709 112.586 47.4777 113.012 47.7747C113.232 47.9168 113.554 48.0653 113.981 48.2202C114.407 48.3752 114.949 48.5302 115.608 48.6852C117.106 49.0467 118.191 49.5116 118.862 50.0799C119.585 50.7256 119.947 51.5844 119.947 52.6562V52.695C119.947 53.9476 119.495 54.942 118.591 55.6781C117.726 56.3884 116.563 56.7435 115.104 56.7435C112.935 56.7435 111.049 56.0203 109.448 54.574ZM123.427 55.2326C122.42 54.1994 121.916 52.9532 121.916 51.494V51.4552C121.916 49.9701 122.42 48.7174 123.427 47.6972C124.447 46.6383 125.719 46.1088 127.243 46.1088C128.883 46.1088 130.245 46.6964 131.33 47.8716L129.858 49.4406C129.044 48.5883 128.166 48.1621 127.224 48.1621C126.371 48.1621 125.667 48.4785 125.112 49.1113C124.544 49.757 124.26 50.5254 124.26 51.4165V51.4552C124.26 52.3592 124.544 53.134 125.112 53.7797C125.693 54.4125 126.429 54.7289 127.32 54.7289C128.276 54.7289 129.161 54.3092 129.974 53.4698L131.388 54.8645C130.252 56.143 128.857 56.7823 127.204 56.7823C125.693 56.7823 124.434 56.2657 123.427 55.2326ZM133.544 46.3219H135.888V48.627C136.611 46.8836 137.819 46.0507 139.51 46.1282V48.6077H139.375C138.316 48.6077 137.476 48.9434 136.857 49.615C136.211 50.3381 135.888 51.3519 135.888 52.6562V56.5498H133.544V46.3219ZM141.585 42.5252H144.103V44.7528H141.585V42.5252ZM141.682 46.3219H144.026V56.5498H141.682V46.3219ZM147.089 46.3219H149.433V48.0265C150.35 46.748 151.512 46.1088 152.919 46.1088C154.185 46.1088 155.276 46.5672 156.193 47.4841C157.175 48.4656 157.665 49.7764 157.665 51.4165V51.4552C157.665 53.0824 157.175 54.3932 156.193 55.3875C155.302 56.3044 154.211 56.7629 152.919 56.7629C151.512 56.7629 150.35 56.1624 149.433 54.9614V59.6492H147.089V46.3219ZM154.43 53.8379C154.999 53.2309 155.283 52.4367 155.283 51.4552V51.4165C155.283 50.4479 154.992 49.6537 154.411 49.0338C153.856 48.4398 153.171 48.1428 152.358 48.1428C151.544 48.1428 150.847 48.4462 150.266 49.0532C149.672 49.6602 149.375 50.4479 149.375 51.4165V51.4552C149.375 52.4238 149.672 53.2115 150.266 53.8185C150.847 54.4254 151.544 54.7289 152.358 54.7289C153.184 54.7289 153.875 54.4319 154.43 53.8379ZM160.569 53.7216V48.3365H159.271V46.3219H160.569V43.5131H162.913V46.3219H165.664V48.3365H162.913V53.3536C162.913 54.2059 163.333 54.6321 164.172 54.6321C164.676 54.6321 165.16 54.5158 165.625 54.2834V56.2011C165.005 56.5498 164.301 56.7241 163.513 56.7241C161.551 56.7241 160.569 55.7233 160.569 53.7216Z" fill="white"/>
<path d="M83.6512 314.778C84.8826 314.778 86.0669 315.203 86.9591 315.965C87.8513 316.726 88.3832 317.767 88.4448 318.87L88.4508 319.086H94.4502C94.7561 319.086 95.0502 319.191 95.2726 319.38C95.495 319.568 95.6288 319.826 95.6467 320.1C95.6647 320.374 95.5653 320.643 95.369 320.854C95.1728 321.064 94.8943 321.2 94.5906 321.232L94.4502 321.24H93.4315L92.0157 336.912C91.9243 337.923 91.4122 338.866 90.5811 339.554C89.7501 340.242 88.661 340.624 87.5305 340.624H79.772C78.6415 340.624 77.5524 340.242 76.7214 339.554C75.8903 338.866 75.3782 337.923 75.2868 336.912L73.8697 321.24H72.8522C72.5583 321.24 72.2747 321.143 72.0551 320.967C71.8354 320.792 71.6951 320.551 71.6607 320.289L71.6523 320.163C71.6524 319.899 71.7603 319.644 71.9556 319.447C72.1509 319.25 72.42 319.124 72.7118 319.093L72.8522 319.086H78.8517C78.8517 317.943 79.3573 316.848 80.2574 316.04C81.1575 315.232 82.3783 314.778 83.6512 314.778ZM80.9515 324.74C80.734 324.74 80.5239 324.81 80.36 324.938C80.1961 325.067 80.0895 325.244 80.06 325.437L80.0516 325.547V334.162L80.06 334.272C80.0896 334.465 80.1962 334.643 80.3601 334.771C80.524 334.899 80.7341 334.97 80.9515 334.97C81.1689 334.97 81.379 334.899 81.5429 334.771C81.7068 334.643 81.8134 334.465 81.843 334.272L81.8514 334.162V325.547L81.843 325.437C81.8134 325.244 81.7068 325.067 81.5429 324.938C81.3791 324.81 81.169 324.74 80.9515 324.74ZM86.351 324.74C86.1335 324.74 85.9234 324.81 85.7595 324.938C85.5956 325.067 85.489 325.244 85.4595 325.437L85.4511 325.547V334.162L85.4595 334.272C85.4891 334.465 85.5957 334.643 85.7596 334.771C85.9235 334.899 86.1336 334.97 86.351 334.97C86.5684 334.97 86.7785 334.899 86.9424 334.771C87.1063 334.643 87.2129 334.465 87.2425 334.272L87.2509 334.162V325.547L87.2425 325.437C87.2129 325.244 87.1063 325.067 86.9425 324.938C86.7786 324.81 86.5685 324.74 86.351 324.74ZM83.6512 316.932C83.0458 316.932 82.4627 317.137 82.0187 317.507C81.5748 317.876 81.3029 318.382 81.2575 318.924L81.2515 319.086H86.051L86.045 318.924C85.9996 318.382 85.7277 317.876 85.2837 317.507C84.8398 317.137 84.2567 316.932 83.6512 316.932Z" fill="white"/>
<path d="M159.547 330.801C160.784 330.801 161.903 330.382 162.751 329.713L171.261 333.899C171.16 334.225 171.106 334.56 171.102 334.897C171.102 337.156 173.236 338.994 175.859 338.994C178.483 338.994 180.617 337.156 180.617 334.897C180.617 332.639 178.483 330.801 175.859 330.801C174.622 330.801 173.504 331.22 172.655 331.89L164.146 327.703C164.231 327.414 164.286 327.116 164.292 326.805L172.654 322.691C173.504 323.36 174.622 323.779 175.859 323.779C178.483 323.779 180.617 321.942 180.617 319.683C180.617 317.424 178.483 315.587 175.859 315.587C173.236 315.587 171.102 317.424 171.102 319.683C171.102 320.03 171.167 320.36 171.261 320.681L163.534 324.484C163.104 323.91 162.514 323.437 161.817 323.11C161.121 322.782 160.34 322.61 159.547 322.609C156.923 322.609 154.789 324.446 154.789 326.705C154.789 328.964 156.923 330.801 159.547 330.801ZM175.859 333.142C176.984 333.142 177.898 333.93 177.898 334.897C177.898 335.865 176.984 336.653 175.859 336.653C174.735 336.653 173.82 335.865 173.82 334.897C173.82 333.93 174.735 333.142 175.859 333.142ZM175.859 317.928C176.984 317.928 177.898 318.715 177.898 319.683C177.898 320.651 176.984 321.439 175.859 321.439C174.735 321.439 173.82 320.651 173.82 319.683C173.82 318.715 174.735 317.928 175.859 317.928ZM159.547 324.95C160.671 324.95 161.586 325.737 161.586 326.705C161.586 327.673 160.671 328.461 159.547 328.461C158.423 328.461 157.508 327.673 157.508 326.705C157.508 325.737 158.423 324.95 159.547 324.95Z" fill="white"/>
<path d="M333.61 332.303V331.381H331.766V332.303C331.766 334.016 332.446 335.658 333.657 336.869C334.867 338.079 336.51 338.76 338.222 338.76H340.989V336.915H338.222C336.999 336.915 335.826 336.429 334.961 335.564C334.096 334.699 333.61 333.526 333.61 332.303Z" fill="white"/>
<path d="M350.215 323.079V324.002H352.059V323.079C352.059 321.367 351.379 319.725 350.168 318.514C348.958 317.303 347.315 316.623 345.603 316.623H342.836V318.468H345.603C346.209 318.468 346.808 318.587 347.368 318.819C347.927 319.051 348.436 319.39 348.864 319.818C349.292 320.247 349.632 320.755 349.864 321.315C350.095 321.874 350.215 322.474 350.215 323.079Z" fill="white"/>
<path d="M338.223 323.079H332.689C331.955 323.079 331.251 323.371 330.732 323.89C330.213 324.408 329.922 325.112 329.922 325.846V327.691H331.767V325.846C331.767 325.602 331.864 325.367 332.037 325.194C332.21 325.021 332.444 324.924 332.689 324.924H338.223C338.468 324.924 338.702 325.021 338.875 325.194C339.048 325.367 339.145 325.602 339.145 325.846V327.691H340.99V325.846C340.99 325.112 340.698 324.408 340.18 323.89C339.661 323.371 338.957 323.079 338.223 323.079Z" fill="white"/>
<path d="M335.455 322.157C336.185 322.157 336.898 321.941 337.505 321.535C338.111 321.13 338.584 320.554 338.864 319.88C339.143 319.205 339.216 318.464 339.073 317.748C338.931 317.032 338.58 316.375 338.064 315.859C337.548 315.343 336.89 314.992 336.175 314.849C335.459 314.707 334.717 314.78 334.043 315.059C333.369 315.338 332.793 315.811 332.387 316.418C331.982 317.025 331.766 317.738 331.766 318.468C331.766 319.446 332.154 320.385 332.846 321.076C333.538 321.768 334.477 322.157 335.455 322.157ZM335.455 316.623C335.82 316.623 336.176 316.731 336.48 316.934C336.783 317.137 337.02 317.425 337.159 317.762C337.299 318.099 337.335 318.47 337.264 318.828C337.193 319.185 337.017 319.514 336.759 319.772C336.501 320.03 336.173 320.206 335.815 320.277C335.457 320.348 335.086 320.312 334.749 320.172C334.412 320.032 334.124 319.796 333.921 319.493C333.719 319.189 333.61 318.833 333.61 318.468C333.61 317.978 333.805 317.509 334.151 317.163C334.497 316.817 334.966 316.623 335.455 316.623Z" fill="white"/>
<path d="M352.985 335.992H347.451C346.717 335.992 346.013 336.284 345.494 336.803C344.975 337.322 344.684 338.025 344.684 338.759V340.604H346.528V338.759C346.528 338.515 346.625 338.28 346.798 338.107C346.971 337.934 347.206 337.837 347.451 337.837H352.985C353.229 337.837 353.464 337.934 353.637 338.107C353.81 338.28 353.907 338.515 353.907 338.759V340.604H355.752V338.759C355.752 338.025 355.46 337.322 354.941 336.803C354.422 336.284 353.719 335.992 352.985 335.992Z" fill="white"/>
<path d="M346.527 331.38C346.527 332.109 346.744 332.823 347.149 333.43C347.555 334.036 348.131 334.509 348.805 334.788C349.479 335.068 350.221 335.141 350.936 334.998C351.652 334.856 352.31 334.505 352.826 333.989C353.341 333.473 353.693 332.815 353.835 332.1C353.978 331.384 353.905 330.642 353.625 329.968C353.346 329.294 352.873 328.718 352.266 328.312C351.66 327.907 350.946 327.69 350.217 327.69C349.238 327.69 348.3 328.079 347.608 328.771C346.916 329.463 346.527 330.401 346.527 331.38ZM352.061 331.38C352.061 331.745 351.953 332.101 351.751 332.405C351.548 332.708 351.26 332.944 350.923 333.084C350.586 333.224 350.215 333.26 349.857 333.189C349.499 333.118 349.17 332.942 348.912 332.684C348.654 332.426 348.479 332.098 348.407 331.74C348.336 331.382 348.373 331.011 348.512 330.674C348.652 330.337 348.889 330.049 349.192 329.846C349.495 329.643 349.852 329.535 350.217 329.535C350.706 329.535 351.175 329.729 351.521 330.075C351.867 330.421 352.061 330.891 352.061 331.38Z" fill="white"/>
<g filter="url(#filter0_b_1984_2068)">
<rect x="0.625" width="413.249" height="385" rx="14.5283" fill="#1A1A1A" fill-opacity="0.17"/>
</g>
<g filter="url(#filter1_f_1984_2068)">
<ellipse cx="255.307" cy="300.988" rx="90.6272" ry="78.7199" fill="#1A1A1A"/>
</g>
<mask id="path-15-inside-1_1984_2068" fill="white">
<path fill-rule="evenodd" clip-rule="evenodd" d="M221.57 322.086C221.57 302.771 238.156 287.096 258.592 287.096C270.985 287.096 281.962 292.86 288.683 301.705L282.906 306.128C279.641 301.707 275.059 298.215 269.699 296.158V297.593C269.699 301.442 266.367 304.591 262.295 304.591H254.89V311.589C254.89 313.513 253.224 315.088 251.188 315.088H243.784V322.086H262.061L247.486 333.243V332.583L229.752 315.822C229.271 317.852 228.975 319.916 228.975 322.086C228.975 329.51 232.029 336.253 237.018 341.257L231.252 345.671C225.239 339.449 221.57 331.17 221.57 322.086ZM238.504 351.476C244.291 355.018 251.189 357.076 258.592 357.076C279.029 357.076 295.615 341.4 295.615 322.086C295.615 317.692 294.756 313.487 293.19 309.612L287.048 314.314C287.805 316.781 288.21 319.389 288.21 322.086C288.21 329.364 285.248 335.977 280.436 340.945C279.473 338.111 276.733 336.082 273.401 336.082H269.699V327.595L250.913 341.977C252.063 342.674 253.429 343.08 254.89 343.08V349.833C251.226 349.403 247.771 348.343 244.65 346.771L238.504 351.476Z"/>
</mask>
<path fill-rule="evenodd" clip-rule="evenodd" d="M221.57 322.086C221.57 302.771 238.156 287.096 258.592 287.096C270.985 287.096 281.962 292.86 288.683 301.705L282.906 306.128C279.641 301.707 275.059 298.215 269.699 296.158V297.593C269.699 301.442 266.367 304.591 262.295 304.591H254.89V311.589C254.89 313.513 253.224 315.088 251.188 315.088H243.784V322.086H262.061L247.486 333.243V332.583L229.752 315.822C229.271 317.852 228.975 319.916 228.975 322.086C228.975 329.51 232.029 336.253 237.018 341.257L231.252 345.671C225.239 339.449 221.57 331.17 221.57 322.086ZM238.504 351.476C244.291 355.018 251.189 357.076 258.592 357.076C279.029 357.076 295.615 341.4 295.615 322.086C295.615 317.692 294.756 313.487 293.19 309.612L287.048 314.314C287.805 316.781 288.21 319.389 288.21 322.086C288.21 329.364 285.248 335.977 280.436 340.945C279.473 338.111 276.733 336.082 273.401 336.082H269.699V327.595L250.913 341.977C252.063 342.674 253.429 343.08 254.89 343.08V349.833C251.226 349.403 247.771 348.343 244.65 346.771L238.504 351.476Z" fill="white"/>
<path d="M288.683 301.705L289.89 303.281L291.46 302.079L290.263 300.504L288.683 301.705ZM282.906 306.128L281.309 307.307L282.509 308.931L284.112 307.704L282.906 306.128ZM269.699 296.158L270.41 294.305L267.715 293.271V296.158H269.699ZM254.89 304.591V302.606H252.906V304.591H254.89ZM243.784 315.088V313.103H241.799V315.088H243.784ZM243.784 322.086H241.799V324.07H243.784V322.086ZM262.061 322.086L263.267 323.661L267.918 320.101H262.061V322.086ZM247.486 333.243H245.501V337.262L248.692 334.819L247.486 333.243ZM247.486 332.583H249.47V331.728L248.849 331.14L247.486 332.583ZM229.752 315.822L231.115 314.38L228.615 312.017L227.821 315.364L229.752 315.822ZM237.018 341.257L238.224 342.833L240.02 341.458L238.423 339.856L237.018 341.257ZM231.252 345.671L229.825 347.05L231.054 348.321L232.458 347.246L231.252 345.671ZM238.504 351.476L237.297 349.9L235 351.659L237.468 353.169L238.504 351.476ZM293.19 309.612L295.03 308.868L294.053 306.452L291.984 308.036L293.19 309.612ZM287.048 314.314L285.842 312.738L284.746 313.577L285.151 314.896L287.048 314.314ZM280.436 340.945L278.556 341.583L279.601 344.659L281.861 342.326L280.436 340.945ZM269.699 336.082H267.715V338.066H269.699V336.082ZM269.699 327.595H271.684V323.577L268.493 326.019L269.699 327.595ZM250.913 341.977L249.706 340.401L247.399 342.167L249.884 343.674L250.913 341.977ZM254.89 343.08H256.875V341.095H254.89V343.08ZM254.89 349.833L254.659 351.804L256.875 352.063V349.833H254.89ZM244.65 346.771L245.543 344.998L244.432 344.439L243.444 345.195L244.65 346.771ZM258.592 285.111C237.167 285.111 219.586 301.571 219.586 322.086H223.555C223.555 303.971 239.145 289.08 258.592 289.08V285.111ZM290.263 300.504C283.167 291.166 271.606 285.111 258.592 285.111V289.08C270.365 289.08 280.757 294.555 287.103 302.906L290.263 300.504ZM284.112 307.704L289.89 303.281L287.477 300.129L281.699 304.552L284.112 307.704ZM268.988 298.011C274.001 299.935 278.274 303.197 281.309 307.307L284.502 304.949C281.008 300.218 276.116 296.495 270.41 294.305L268.988 298.011ZM271.684 297.593V296.158H267.715V297.593H271.684ZM262.295 306.575C267.356 306.575 271.684 302.642 271.684 297.593H267.715C267.715 300.241 265.378 302.606 262.295 302.606V306.575ZM254.89 306.575H262.295V302.606H254.89V306.575ZM256.875 311.589V304.591H252.906V311.589H256.875ZM251.188 317.072C254.213 317.072 256.875 314.713 256.875 311.589H252.906C252.906 312.313 252.235 313.103 251.188 313.103V317.072ZM243.784 317.072H251.188V313.103H243.784V317.072ZM245.768 322.086V315.088H241.799V322.086H245.768ZM262.061 320.101H243.784V324.07H262.061V320.101ZM248.692 334.819L263.267 323.661L260.854 320.51L246.28 331.667L248.692 334.819ZM245.501 332.583V333.243H249.47V332.583H245.501ZM228.389 317.265L246.123 334.025L248.849 331.14L231.115 314.38L228.389 317.265ZM230.959 322.086C230.959 320.1 231.23 318.192 231.683 316.28L227.821 315.364C227.312 317.512 226.99 319.732 226.99 322.086H230.959ZM238.423 339.856C233.779 335.198 230.959 328.949 230.959 322.086H226.99C226.99 330.071 230.279 337.308 235.612 342.658L238.423 339.856ZM232.458 347.246L238.224 342.833L235.811 339.681L230.046 344.095L232.458 347.246ZM219.586 322.086C219.586 331.72 223.48 340.484 229.825 347.05L232.679 344.291C226.998 338.413 223.555 330.62 223.555 322.086H219.586ZM237.468 353.169C243.563 356.899 250.818 359.06 258.592 359.06V355.091C251.56 355.091 245.019 353.137 239.54 349.783L237.468 353.169ZM258.592 359.06C280.018 359.06 297.599 342.6 297.599 322.086H293.63C293.63 340.2 278.04 355.091 258.592 355.091V359.06ZM297.599 322.086C297.599 317.431 296.69 312.974 295.03 308.868L291.35 310.356C292.823 314 293.63 317.953 293.63 322.086H297.599ZM291.984 308.036L285.842 312.738L288.254 315.89L294.396 311.188L291.984 308.036ZM285.151 314.896C285.85 317.178 286.226 319.589 286.226 322.086H290.195C290.195 319.189 289.759 316.385 288.945 313.732L285.151 314.896ZM286.226 322.086C286.226 328.808 283.493 334.937 279.01 339.564L281.861 342.326C287.004 337.017 290.195 329.919 290.195 322.086H286.226ZM282.315 340.307C281.071 336.645 277.559 334.097 273.401 334.097V338.066C275.908 338.066 277.875 339.577 278.556 341.583L282.315 340.307ZM273.401 334.097H269.699V338.066H273.401V334.097ZM271.684 336.082V327.595H267.715V336.082H271.684ZM268.493 326.019L249.706 340.401L252.119 343.552L270.905 329.171L268.493 326.019ZM249.884 343.674C251.339 344.556 253.059 345.064 254.89 345.064V341.095C253.799 341.095 252.788 340.793 251.941 340.28L249.884 343.674ZM252.906 343.08V349.833H256.875V343.08H252.906ZM255.121 347.862C251.689 347.459 248.458 346.467 245.543 344.998L243.757 348.543C247.084 350.219 250.763 351.347 254.659 351.804L255.121 347.862ZM243.444 345.195L237.297 349.9L239.71 353.052L245.857 348.346L243.444 345.195Z" fill="#00A3FF" mask="url(#path-15-inside-1_1984_2068)"/>
<rect x="1.35765" y="0.209228" width="88.275" height="5.51838" transform="matrix(0.794041 -0.607864 0.57419 0.818722 226.46 355.906)" fill="white" stroke="#00A3FF" stroke-width="1.98454"/>
<defs>
<filter id="filter0_b_1984_2068" x="-4.6671" y="-5.2921" width="423.834" height="395.584" filterUnits="userSpaceOnUse" color-interpolation-filters="sRGB">
<feFlood flood-opacity="0" result="BackgroundImageFix"/>
<feGaussianBlur in="BackgroundImage" stdDeviation="2.64605"/>
<feComposite in2="SourceAlpha" operator="in" result="effect1_backgroundBlur_1984_2068"/>
<feBlend mode="normal" in="SourceGraphic" in2="effect1_backgroundBlur_1984_2068" result="shape"/>
</filter>
<filter id="filter1_f_1984_2068" x="136.896" y="194.484" width="236.821" height="213.006" filterUnits="userSpaceOnUse" color-interpolation-filters="sRGB">
<feFlood flood-opacity="0" result="BackgroundImageFix"/>
<feBlend mode="normal" in="SourceGraphic" in2="BackgroundImageFix" result="shape"/>
<feGaussianBlur stdDeviation="13.8918" result="effect1_foregroundBlur_1984_2068"/>
</filter>
</defs>
</svg>
