<svg width="415" height="408" viewBox="0 0 415 408" fill="none" xmlns="http://www.w3.org/2000/svg">
<rect width="413.249" height="385" rx="14.5283" fill="#1A1A1A"/>
<path d="M53.3996 93.0311H59.4822C61.0448 93.0311 62.2264 93.4314 63.0271 94.2321C63.634 94.839 63.9375 95.5881 63.9375 96.4791V96.5179C63.9375 97.8609 63.2918 98.8682 62.0004 99.5398C63.7955 100.134 64.693 101.231 64.693 102.833V102.872C64.693 104.06 64.2345 104.983 63.3176 105.642C62.4395 106.274 61.2256 106.591 59.6759 106.591H53.3996V93.0311ZM61.5549 96.8665C61.5549 95.7172 60.7607 95.1425 59.1722 95.1425H55.7435V98.7455H58.9979C60.7025 98.7455 61.5549 98.1321 61.5549 96.9053V96.8665ZM62.3103 102.581C62.3103 101.367 61.3805 100.76 59.5209 100.76H55.7435V104.479H59.6952C61.4386 104.479 62.3103 103.859 62.3103 102.62V102.581ZM67.3794 93.0311H69.762V104.421H76.8905V106.591H67.3794V93.0311ZM79.9725 104.77C78.6553 103.427 77.9967 101.787 77.9967 99.8497V99.8109C77.9967 97.8609 78.6617 96.2144 79.9919 94.8713C81.3479 93.4895 83.0525 92.7986 85.1058 92.7986C87.1721 92.7986 88.8703 93.4831 90.2004 94.852C91.5177 96.1821 92.1763 97.8222 92.1763 99.7722V99.8109C92.1763 101.761 91.5112 103.408 90.1811 104.751C88.8251 106.132 87.1204 106.823 85.0671 106.823C83.0009 106.823 81.3027 106.139 79.9725 104.77ZM88.3989 103.22C89.2513 102.303 89.6774 101.18 89.6774 99.8497V99.8109C89.6774 98.455 89.2448 97.3185 88.3796 96.4016C87.5143 95.4589 86.4102 94.9875 85.0671 94.9875C83.7499 94.9875 82.6522 95.4525 81.774 96.3823C80.9217 97.2862 80.4955 98.4162 80.4955 99.7722V99.8109C80.4955 101.167 80.9282 102.297 81.7934 103.201C82.6586 104.144 83.7628 104.615 85.1058 104.615C86.436 104.615 87.5337 104.15 88.3989 103.22ZM96.3722 104.809C95.0938 103.504 94.4545 101.851 94.4545 99.8497V99.8109C94.4545 97.8868 95.1067 96.2402 96.411 94.8713C97.754 93.4895 99.4329 92.7986 101.447 92.7986C103.462 92.7986 105.199 93.412 106.658 94.6389L105.147 96.4404C104.011 95.4718 102.745 94.9875 101.351 94.9875C100.111 94.9875 99.0648 95.4589 98.2125 96.4016C97.3731 97.3444 96.9534 98.4679 96.9534 99.7722V99.8109C96.9534 101.206 97.3731 102.361 98.2125 103.278C99.0907 104.195 100.208 104.654 101.564 104.654C102.829 104.654 103.921 104.311 104.837 103.627V101.089H101.37V99.0167H107.143V104.712C105.502 106.119 103.617 106.823 101.486 106.823C99.3941 106.823 97.6895 106.152 96.3722 104.809ZM111.563 104.809C110.284 103.504 109.645 101.851 109.645 99.8497V99.8109C109.645 97.8868 110.297 96.2402 111.601 94.8713C112.944 93.4895 114.623 92.7986 116.638 92.7986C118.652 92.7986 120.389 93.412 121.849 94.6389L120.338 96.4404C119.201 95.4718 117.936 94.9875 116.541 94.9875C115.301 94.9875 114.255 95.4589 113.403 96.4016C112.563 97.3444 112.144 98.4679 112.144 99.7722V99.8109C112.144 101.206 112.563 102.361 113.403 103.278C114.281 104.195 115.398 104.654 116.754 104.654C118.02 104.654 119.111 104.311 120.028 103.627V101.089H116.56V99.0167H122.333V104.712C120.693 106.119 118.807 106.823 116.677 106.823C114.585 106.823 112.88 106.152 111.563 104.809ZM125.436 93.0311H135.489V95.1619H127.818V98.6874H134.618V100.818H127.818V104.46H135.586V106.591H125.436V93.0311ZM138.413 93.0311H144.457C146.148 93.0311 147.453 93.4831 148.37 94.387C149.119 95.149 149.493 96.124 149.493 97.3121V97.3508C149.493 99.4687 148.421 100.838 146.278 101.457L149.939 106.591H147.111L143.779 101.864H140.796V106.591H138.413V93.0311ZM144.282 99.7528C145.122 99.7528 145.8 99.5462 146.316 99.133C146.82 98.7197 147.072 98.1709 147.072 97.4864V97.4477C147.072 95.9496 146.136 95.2006 144.263 95.2006H140.796V99.7528H144.282ZM150.871 93.0311H153.505L157.593 103.453L161.661 93.0311H164.237L158.619 106.688H156.508L150.871 93.0311ZM166.697 93.0311H169.08V106.591H166.697V93.0311ZM172.71 93.0311H175.092V104.421H182.221V106.591H172.71V93.0311ZM184.703 93.0311H187.086V104.421H194.214V106.591H184.703V93.0311ZM196.696 93.0311H206.75V95.1619H199.079V98.6874H205.878V100.818H199.079V104.46H206.847V106.591H196.696V93.0311ZM212.695 93.0311H215.271L218.506 103.085L221.838 92.9923H223.852L227.184 103.085L230.419 93.0311H232.918L228.211 106.688H226.138L222.806 96.944L219.474 106.688H217.421L212.695 93.0311ZM235.363 93.0311H245.416V95.1619H237.745V98.6874H244.545V100.818H237.745V104.46H245.513V106.591H235.363V93.0311ZM248.34 93.0311H254.422C255.985 93.0311 257.167 93.4314 257.967 94.2321C258.574 94.839 258.878 95.5881 258.878 96.4791V96.5179C258.878 97.8609 258.232 98.8682 256.941 99.5398C258.736 100.134 259.633 101.231 259.633 102.833V102.872C259.633 104.06 259.175 104.983 258.258 105.642C257.38 106.274 256.166 106.591 254.616 106.591H248.34V93.0311ZM256.495 96.8665C256.495 95.7172 255.701 95.1425 254.113 95.1425H250.684V98.7455H253.938C255.643 98.7455 256.495 98.1321 256.495 96.9053V96.8665ZM257.251 102.581C257.251 101.367 256.321 100.76 254.461 100.76H250.684V104.479H254.636C256.379 104.479 257.251 103.859 257.251 102.62V102.581ZM272.666 92.9342H274.875L280.841 106.591H278.323L276.947 103.317H270.536L269.141 106.591H266.7L272.666 92.9342ZM276.076 101.206L273.732 95.7818L271.407 101.206H276.076ZM283.166 93.0311H288.513C290.088 93.0311 291.347 93.4443 292.29 94.2708C293.207 95.1102 293.665 96.2079 293.665 97.5639V97.6026C293.665 99.0748 293.136 100.224 292.077 101.051C291.095 101.838 289.817 102.232 288.241 102.232H285.549V106.591H283.166V93.0311ZM288.319 100.082C289.21 100.082 289.92 99.8561 290.45 99.4042C290.979 98.9522 291.244 98.371 291.244 97.6608V97.622C291.244 96.8472 290.979 96.2467 290.45 95.8205C289.92 95.4073 289.21 95.2006 288.319 95.2006H285.549V100.082H288.319ZM296.106 93.0311H301.452C303.027 93.0311 304.287 93.4443 305.229 94.2708C306.146 95.1102 306.605 96.2079 306.605 97.5639V97.6026C306.605 99.0748 306.075 100.224 305.016 101.051C304.035 101.838 302.756 102.232 301.181 102.232H298.488V106.591H296.106V93.0311ZM301.258 100.082C302.149 100.082 302.86 99.8561 303.389 99.4042C303.919 98.9522 304.183 98.371 304.183 97.6608V97.622C304.183 96.8472 303.919 96.2467 303.389 95.8205C302.86 95.4073 302.149 95.2006 301.258 95.2006H298.488V100.082H301.258Z" fill="white"/>
<rect x="38.7383" y="33.0928" width="161.426" height="33.8994" rx="16.9497" fill="#9C170E"/>
<path d="M64.1685 54.5546L65.7376 52.9274C66.577 53.9993 67.4874 54.5352 68.4689 54.5352C69.9023 54.5352 70.6191 53.6441 70.6191 51.862V42.9901H73.0792V51.9395C73.0792 53.4892 72.653 54.6902 71.8007 55.5425C71 56.3432 69.9023 56.7435 68.5076 56.7435C66.6868 56.7435 65.2404 56.0139 64.1685 54.5546ZM76.4802 55.9493C75.757 55.3682 75.3954 54.5869 75.3954 53.6054V53.5667C75.3954 52.4948 75.7893 51.6683 76.577 51.0872C77.3131 50.5448 78.3269 50.2736 79.6183 50.2736C80.5869 50.2736 81.5038 50.4156 82.369 50.6997V50.4479C82.369 48.9628 81.5231 48.2202 79.8314 48.2202C78.9145 48.2202 77.9395 48.4333 76.9064 48.8595L76.2865 47.0192C77.5133 46.4639 78.7983 46.1863 80.1413 46.1863C81.6652 46.1863 82.7952 46.5672 83.5313 47.3292C84.2674 48.0394 84.6354 49.0919 84.6354 50.4867V56.5498H82.3496V55.2713C81.5102 56.2657 80.3996 56.7629 79.0178 56.7629C78.0105 56.7629 77.1646 56.4917 76.4802 55.9493ZM81.6329 54.4577C82.1495 54.0574 82.4077 53.5279 82.4077 52.8693V52.1719C81.7104 51.9007 80.9355 51.7652 80.0832 51.7652C78.4819 51.7652 77.6812 52.3334 77.6812 53.4698V53.5085C77.6812 53.9735 77.8749 54.3544 78.2623 54.6514C78.6368 54.9226 79.1082 55.0582 79.6764 55.0582C80.4642 55.0582 81.1163 54.8581 81.6329 54.4577ZM86.0957 46.3219H88.6139L91.3646 53.8379L94.1346 46.3219H96.5948L92.4106 56.6273H90.2992L86.0957 46.3219ZM98.4996 55.9493C97.7765 55.3682 97.4149 54.5869 97.4149 53.6054V53.5667C97.4149 52.4948 97.8087 51.6683 98.5965 51.0872C99.3326 50.5448 100.346 50.2736 101.638 50.2736C102.606 50.2736 103.523 50.4156 104.388 50.6997V50.4479C104.388 48.9628 103.543 48.2202 101.851 48.2202C100.934 48.2202 99.9589 48.4333 98.9258 48.8595L98.3059 47.0192C99.5328 46.4639 100.818 46.1863 102.161 46.1863C103.685 46.1863 104.815 46.5672 105.551 47.3292C106.287 48.0394 106.655 49.0919 106.655 50.4867V56.5498H104.369V55.2713C103.53 56.2657 102.419 56.7629 101.037 56.7629C100.03 56.7629 99.1841 56.4917 98.4996 55.9493ZM103.652 54.4577C104.169 54.0574 104.427 53.5279 104.427 52.8693V52.1719C103.73 51.9007 102.955 51.7652 102.103 51.7652C100.501 51.7652 99.7007 52.3334 99.7007 53.4698V53.5085C99.7007 53.9735 99.8944 54.3544 100.282 54.6514C100.656 54.9226 101.128 55.0582 101.696 55.0582C102.484 55.0582 103.136 54.8581 103.652 54.4577ZM108.823 54.574L110.256 52.8693C111.599 54.0445 113.026 54.6321 114.537 54.6321C115.273 54.6321 115.861 54.4706 116.3 54.1478C116.726 53.8379 116.939 53.4311 116.939 52.9274V52.8887C116.939 52.385 116.746 51.9911 116.358 51.707C115.919 51.3971 115.093 51.1001 113.879 50.816C112.277 50.4156 111.167 49.9636 110.547 49.46C109.759 48.8401 109.365 47.9426 109.365 46.7674V46.7287C109.365 45.5664 109.798 44.6172 110.663 43.8811C111.541 43.1579 112.652 42.7963 113.995 42.7963C115.867 42.7963 117.507 43.3646 118.915 44.501L117.637 46.3025C116.384 45.3727 115.157 44.9078 113.956 44.9078C113.285 44.9078 112.742 45.0628 112.329 45.3727C111.942 45.6568 111.748 46.0378 111.748 46.5156V46.5543C111.748 47.0709 111.961 47.4777 112.387 47.7747C112.607 47.9168 112.929 48.0653 113.356 48.2202C113.782 48.3752 114.324 48.5302 114.983 48.6852C116.481 49.0467 117.566 49.5116 118.237 50.0799C118.96 50.7256 119.322 51.5844 119.322 52.6562V52.695C119.322 53.9476 118.87 54.942 117.966 55.6781C117.101 56.3884 115.938 56.7435 114.479 56.7435C112.31 56.7435 110.424 56.0203 108.823 54.574ZM122.802 55.2326C121.795 54.1994 121.291 52.9532 121.291 51.494V51.4552C121.291 49.9701 121.795 48.7174 122.802 47.6972C123.822 46.6383 125.094 46.1088 126.618 46.1088C128.258 46.1088 129.62 46.6964 130.705 47.8716L129.233 49.4406C128.419 48.5883 127.541 48.1621 126.599 48.1621C125.746 48.1621 125.042 48.4785 124.487 49.1113C123.919 49.757 123.635 50.5254 123.635 51.4165V51.4552C123.635 52.3592 123.919 53.134 124.487 53.7797C125.068 54.4125 125.804 54.7289 126.695 54.7289C127.651 54.7289 128.536 54.3092 129.349 53.4698L130.763 54.8645C129.627 56.143 128.232 56.7823 126.579 56.7823C125.068 56.7823 123.809 56.2657 122.802 55.2326ZM132.919 46.3219H135.263V48.627C135.986 46.8836 137.194 46.0507 138.885 46.1282V48.6077H138.75C137.691 48.6077 136.851 48.9434 136.232 49.615C135.586 50.3381 135.263 51.3519 135.263 52.6562V56.5498H132.919V46.3219ZM140.96 42.5252H143.478V44.7528H140.96V42.5252ZM141.057 46.3219H143.401V56.5498H141.057V46.3219ZM146.464 46.3219H148.808V48.0265C149.725 46.748 150.887 46.1088 152.294 46.1088C153.56 46.1088 154.651 46.5672 155.568 47.4841C156.55 48.4656 157.04 49.7764 157.04 51.4165V51.4552C157.04 53.0824 156.55 54.3932 155.568 55.3875C154.677 56.3044 153.586 56.7629 152.294 56.7629C150.887 56.7629 149.725 56.1624 148.808 54.9614V59.6492H146.464V46.3219ZM153.805 53.8379C154.374 53.2309 154.658 52.4367 154.658 51.4552V51.4165C154.658 50.4479 154.367 49.6537 153.786 49.0338C153.231 48.4398 152.546 48.1428 151.733 48.1428C150.919 48.1428 150.222 48.4462 149.641 49.0532C149.047 49.6602 148.75 50.4479 148.75 51.4165V51.4552C148.75 52.4238 149.047 53.2115 149.641 53.8185C150.222 54.4254 150.919 54.7289 151.733 54.7289C152.559 54.7289 153.25 54.4319 153.805 53.8379ZM159.944 53.7216V48.3365H158.646V46.3219H159.944V43.5131H162.288V46.3219H165.039V48.3365H162.288V53.3536C162.288 54.2059 162.708 54.6321 163.547 54.6321C164.051 54.6321 164.535 54.5158 165 54.2834V56.2011C164.38 56.5498 163.676 56.7241 162.888 56.7241C160.926 56.7241 159.944 55.7233 159.944 53.7216Z" fill="white"/>
<path d="M83.0262 314.778C84.2576 314.778 85.4419 315.203 86.3341 315.965C87.2263 316.726 87.7582 317.767 87.8198 318.87L87.8258 319.086H93.8252C94.1311 319.086 94.4252 319.191 94.6476 319.38C94.87 319.568 95.0038 319.826 95.0217 320.1C95.0397 320.374 94.9403 320.643 94.744 320.854C94.5478 321.064 94.2693 321.2 93.9656 321.232L93.8252 321.24H92.8065L91.3907 336.912C91.2993 337.923 90.7872 338.866 89.9561 339.554C89.1251 340.242 88.036 340.624 86.9055 340.624H79.147C78.0165 340.624 76.9274 340.242 76.0964 339.554C75.2653 338.866 74.7532 337.923 74.6618 336.912L73.2447 321.24H72.2272C71.9333 321.24 71.6497 321.143 71.4301 320.967C71.2104 320.792 71.0701 320.551 71.0357 320.289L71.0273 320.163C71.0274 319.899 71.1353 319.644 71.3306 319.447C71.5259 319.25 71.795 319.124 72.0868 319.093L72.2272 319.086H78.2267C78.2267 317.943 78.7323 316.848 79.6324 316.04C80.5325 315.232 81.7533 314.778 83.0262 314.778V314.778ZM80.3265 324.74C80.109 324.74 79.8989 324.81 79.735 324.938C79.5711 325.067 79.4645 325.244 79.435 325.437L79.4266 325.547V334.162L79.435 334.272C79.4646 334.465 79.5712 334.643 79.7351 334.771C79.899 334.899 80.1091 334.97 80.3265 334.97C80.5439 334.97 80.754 334.899 80.9179 334.771C81.0818 334.643 81.1884 334.465 81.218 334.272L81.2264 334.162V325.547L81.218 325.437C81.1884 325.244 81.0818 325.067 80.9179 324.938C80.7541 324.81 80.544 324.74 80.3265 324.74ZM85.726 324.74C85.5085 324.74 85.2984 324.81 85.1345 324.938C84.9706 325.067 84.864 325.244 84.8345 325.437L84.8261 325.547V334.162L84.8345 334.272C84.8641 334.465 84.9707 334.643 85.1346 334.771C85.2985 334.899 85.5086 334.97 85.726 334.97C85.9434 334.97 86.1535 334.899 86.3174 334.771C86.4813 334.643 86.5879 334.465 86.6175 334.272L86.6259 334.162V325.547L86.6175 325.437C86.5879 325.244 86.4813 325.067 86.3175 324.938C86.1536 324.81 85.9435 324.74 85.726 324.74ZM83.0262 316.932C82.4208 316.932 81.8377 317.137 81.3937 317.507C80.9498 317.876 80.6779 318.382 80.6325 318.924L80.6265 319.086H85.426L85.42 318.924C85.3746 318.382 85.1027 317.876 84.6587 317.507C84.2148 317.137 83.6317 316.932 83.0262 316.932V316.932Z" fill="white"/>
<path d="M158.922 330.801C160.159 330.801 161.278 330.382 162.126 329.713L170.636 333.899C170.535 334.225 170.481 334.56 170.477 334.897C170.477 337.156 172.611 338.994 175.234 338.994C177.858 338.994 179.992 337.156 179.992 334.897C179.992 332.639 177.858 330.801 175.234 330.801C173.997 330.801 172.879 331.22 172.03 331.89L163.521 327.703C163.606 327.414 163.661 327.116 163.667 326.805L172.029 322.691C172.879 323.36 173.997 323.779 175.234 323.779C177.858 323.779 179.992 321.942 179.992 319.683C179.992 317.424 177.858 315.587 175.234 315.587C172.611 315.587 170.477 317.424 170.477 319.683C170.477 320.03 170.542 320.36 170.636 320.681L162.909 324.484C162.479 323.91 161.889 323.437 161.192 323.11C160.496 322.782 159.715 322.61 158.922 322.609C156.298 322.609 154.164 324.446 154.164 326.705C154.164 328.964 156.298 330.801 158.922 330.801ZM175.234 333.142C176.359 333.142 177.273 333.93 177.273 334.897C177.273 335.865 176.359 336.653 175.234 336.653C174.11 336.653 173.195 335.865 173.195 334.897C173.195 333.93 174.11 333.142 175.234 333.142ZM175.234 317.928C176.359 317.928 177.273 318.715 177.273 319.683C177.273 320.651 176.359 321.439 175.234 321.439C174.11 321.439 173.195 320.651 173.195 319.683C173.195 318.715 174.11 317.928 175.234 317.928ZM158.922 324.95C160.046 324.95 160.961 325.737 160.961 326.705C160.961 327.673 160.046 328.461 158.922 328.461C157.798 328.461 156.883 327.673 156.883 326.705C156.883 325.737 157.798 324.95 158.922 324.95Z" fill="white"/>
<path d="M332.989 332.303V331.381H331.145V332.303C331.145 334.016 331.825 335.658 333.036 336.869C334.246 338.079 335.889 338.76 337.601 338.76H340.368V336.915H337.601C336.378 336.915 335.205 336.429 334.34 335.564C333.475 334.699 332.989 333.526 332.989 332.303Z" fill="white"/>
<path d="M349.594 323.079V324.002H351.438V323.079C351.438 321.367 350.758 319.725 349.547 318.514C348.336 317.303 346.694 316.623 344.982 316.623H342.215V318.468H344.982C345.587 318.468 346.187 318.587 346.747 318.819C347.306 319.051 347.815 319.39 348.243 319.818C348.671 320.247 349.011 320.755 349.243 321.315C349.474 321.874 349.594 322.474 349.594 323.079V323.079Z" fill="white"/>
<path d="M337.602 323.079H332.068C331.334 323.079 330.63 323.371 330.111 323.89C329.592 324.408 329.301 325.112 329.301 325.846V327.691H331.145V325.846C331.145 325.602 331.243 325.367 331.416 325.194C331.589 325.021 331.823 324.924 332.068 324.924H337.602C337.847 324.924 338.081 325.021 338.254 325.194C338.427 325.367 338.524 325.602 338.524 325.846V327.691H340.369V325.846C340.369 325.112 340.077 324.408 339.558 323.89C339.04 323.371 338.336 323.079 337.602 323.079V323.079Z" fill="white"/>
<path d="M334.834 322.157C335.564 322.157 336.277 321.941 336.884 321.535C337.49 321.13 337.963 320.554 338.242 319.88C338.522 319.205 338.595 318.464 338.452 317.748C338.31 317.032 337.959 316.375 337.443 315.859C336.927 315.343 336.269 314.992 335.554 314.849C334.838 314.707 334.096 314.78 333.422 315.059C332.748 315.338 332.172 315.811 331.766 316.418C331.361 317.025 331.145 317.738 331.145 318.468C331.145 319.446 331.533 320.385 332.225 321.076C332.917 321.768 333.855 322.157 334.834 322.157ZM334.834 316.623C335.199 316.623 335.555 316.731 335.859 316.934C336.162 317.137 336.399 317.425 336.538 317.762C336.678 318.099 336.714 318.47 336.643 318.828C336.572 319.185 336.396 319.514 336.138 319.772C335.88 320.03 335.552 320.206 335.194 320.277C334.836 320.348 334.465 320.312 334.128 320.172C333.791 320.032 333.503 319.796 333.3 319.493C333.097 319.189 332.989 318.833 332.989 318.468C332.989 317.978 333.184 317.509 333.53 317.163C333.875 316.817 334.345 316.623 334.834 316.623V316.623Z" fill="white"/>
<path d="M352.364 335.992H346.83C346.096 335.992 345.392 336.284 344.873 336.803C344.354 337.322 344.062 338.025 344.062 338.759V340.604H345.907V338.759C345.907 338.515 346.004 338.28 346.177 338.107C346.35 337.934 346.585 337.837 346.83 337.837H352.364C352.608 337.837 352.843 337.934 353.016 338.107C353.189 338.28 353.286 338.515 353.286 338.759V340.604H355.131V338.759C355.131 338.025 354.839 337.322 354.32 336.803C353.801 336.284 353.097 335.992 352.364 335.992Z" fill="white"/>
<path d="M345.906 331.38C345.906 332.109 346.123 332.823 346.528 333.43C346.933 334.036 347.51 334.509 348.184 334.788C348.858 335.068 349.6 335.141 350.315 334.998C351.031 334.856 351.688 334.505 352.204 333.989C352.72 333.473 353.072 332.815 353.214 332.1C353.356 331.384 353.283 330.642 353.004 329.968C352.725 329.294 352.252 328.718 351.645 328.312C351.039 327.907 350.325 327.69 349.596 327.69C348.617 327.69 347.679 328.079 346.987 328.771C346.295 329.463 345.906 330.401 345.906 331.38ZM351.44 331.38C351.44 331.745 351.332 332.101 351.129 332.405C350.927 332.708 350.639 332.944 350.302 333.084C349.964 333.224 349.594 333.26 349.236 333.189C348.878 333.118 348.549 332.942 348.291 332.684C348.033 332.426 347.858 332.098 347.786 331.74C347.715 331.382 347.752 331.011 347.891 330.674C348.031 330.337 348.267 330.049 348.571 329.846C348.874 329.643 349.231 329.535 349.596 329.535C350.085 329.535 350.554 329.729 350.9 330.075C351.246 330.421 351.44 330.891 351.44 331.38Z" fill="white"/>
<g filter="url(#filter0_b_1984_2067)">
<rect x="1.32422" width="413.249" height="385" rx="14.5283" fill="#1A1A1A" fill-opacity="0.17"/>
</g>
<g filter="url(#filter1_f_1984_2067)">
<ellipse cx="254.682" cy="300.988" rx="90.6272" ry="78.7199" fill="#1A1A1A"/>
</g>
<path d="M254.17 357.559L255.278 357.689V356.574V349.807V348.815H254.286C250.706 348.815 247.869 346.053 247.869 342.795V339.289V338.862L247.559 338.568L229.814 321.775L228.563 320.591L228.167 322.267C227.671 324.359 227.362 326.505 227.362 328.771C227.362 343.627 239.087 355.788 254.17 357.559ZM278.907 347.987L279.429 349.527L280.56 348.358C285.54 343.209 288.618 336.341 288.618 328.771C288.618 316.574 280.656 306.169 269.459 301.865L268.111 301.347V302.792V304.229C268.111 307.487 265.274 310.249 261.694 310.249H254.286H253.293V311.241V318.253C253.293 319.583 252.123 320.767 250.581 320.767H243.172H242.18V321.759V328.771V329.763H243.172H265.399C266.941 329.763 268.111 330.948 268.111 332.277V342.795V343.787H269.103H272.808C275.728 343.787 278.084 345.561 278.907 347.987ZM221.938 328.771C221.938 310.017 238.037 294.703 257.99 294.703C277.943 294.703 294.042 310.017 294.042 328.771C294.042 347.525 277.943 362.839 257.99 362.839C238.037 362.839 221.938 347.525 221.938 328.771Z" fill="white" stroke="#00A3FF" stroke-width="1.98454"/>
<defs>
<filter id="filter0_b_1984_2067" x="-3.96788" y="-5.2921" width="423.834" height="395.584" filterUnits="userSpaceOnUse" color-interpolation-filters="sRGB">
<feFlood flood-opacity="0" result="BackgroundImageFix"/>
<feGaussianBlur in="BackgroundImage" stdDeviation="2.64605"/>
<feComposite in2="SourceAlpha" operator="in" result="effect1_backgroundBlur_1984_2067"/>
<feBlend mode="normal" in="SourceGraphic" in2="effect1_backgroundBlur_1984_2067" result="shape"/>
</filter>
<filter id="filter1_f_1984_2067" x="136.271" y="194.484" width="236.821" height="213.006" filterUnits="userSpaceOnUse" color-interpolation-filters="sRGB">
<feFlood flood-opacity="0" result="BackgroundImageFix"/>
<feBlend mode="normal" in="SourceGraphic" in2="BackgroundImageFix" result="shape"/>
<feGaussianBlur stdDeviation="13.8918" result="effect1_foregroundBlur_1984_2067"/>
</filter>
</defs>
</svg>
