<!-- <svg width="1264" height="672" viewBox="0 0 1264 672" fill="none" xmlns="http://www.w3.org/2000/svg">
<rect width="1264" height="672" rx="20" fill="#116B4B"/>
<path d="M409.296 85.8H414.084L420.096 104.484L426.288 85.728H430.032L436.224 104.484L442.236 85.8H446.88L438.132 111.18H434.28L428.088 93.072L421.896 111.18H418.08L409.296 85.8ZM450.328 108.696C448.456 106.848 447.52 104.472 447.52 101.568V101.496C447.52 98.736 448.384 96.408 450.112 94.512C451.888 92.568 454.12 91.596 456.808 91.596C459.688 91.596 461.968 92.616 463.648 94.656C465.16 96.528 465.916 98.916 465.916 101.82C465.916 101.94 465.904 102.108 465.88 102.324C465.88 102.516 465.868 102.756 465.844 103.044H451.876C452.14 104.556 452.764 105.744 453.748 106.608C454.732 107.448 455.932 107.868 457.348 107.868C459.244 107.868 460.96 107.112 462.496 105.6L465.052 107.868C463.084 110.244 460.492 111.432 457.276 111.432C454.468 111.432 452.152 110.52 450.328 108.696ZM461.596 100.164C461.452 98.676 460.972 97.488 460.156 96.6C459.292 95.64 458.164 95.16 456.772 95.16C455.476 95.16 454.372 95.628 453.46 96.564C452.572 97.452 452.032 98.652 451.84 100.164H461.596ZM470.543 84.72H474.899V111H470.543V84.72ZM481.441 108.552C479.569 106.632 478.633 104.316 478.633 101.604V101.532C478.633 98.772 479.569 96.444 481.441 94.548C483.337 92.58 485.701 91.596 488.533 91.596C491.581 91.596 494.113 92.688 496.129 94.872L493.393 97.788C491.881 96.204 490.249 95.412 488.497 95.412C486.913 95.412 485.605 96 484.573 97.176C483.517 98.376 482.989 99.804 482.989 101.46V101.532C482.989 103.212 483.517 104.652 484.573 105.852C485.653 107.028 487.021 107.616 488.677 107.616C490.453 107.616 492.097 106.836 493.609 105.276L496.237 107.868C494.125 110.244 491.533 111.432 488.461 111.432C485.653 111.432 483.313 110.472 481.441 108.552ZM501.552 108.552C499.632 106.632 498.672 104.316 498.672 101.604V101.532C498.672 98.772 499.632 96.432 501.552 94.512C503.544 92.568 505.968 91.596 508.824 91.596C511.68 91.596 514.092 92.556 516.06 94.476C517.98 96.396 518.94 98.724 518.94 101.46V101.532C518.94 104.268 517.98 106.596 516.06 108.516C514.092 110.46 511.656 111.432 508.752 111.432C505.872 111.432 503.472 110.472 501.552 108.552ZM513.036 105.852C514.068 104.724 514.584 103.308 514.584 101.604V101.532C514.584 99.828 514.044 98.388 512.964 97.212C511.836 96.012 510.432 95.412 508.752 95.412C507.048 95.412 505.656 96 504.576 97.176C503.544 98.304 503.028 99.732 503.028 101.46V101.532C503.028 103.188 503.568 104.616 504.648 105.816C505.776 107.016 507.168 107.616 508.824 107.616C510.552 107.616 511.956 107.028 513.036 105.852ZM523.377 91.992H527.733V94.872C529.317 92.688 531.249 91.596 533.529 91.596C536.217 91.596 538.113 92.712 539.217 94.944C540.921 92.712 543.057 91.596 545.625 91.596C547.689 91.596 549.321 92.232 550.521 93.504C551.697 94.752 552.285 96.54 552.285 98.868V111H547.929V100.2C547.929 97.104 546.645 95.556 544.077 95.556C542.853 95.556 541.881 95.964 541.161 96.78C540.393 97.62 540.009 98.784 540.009 100.272V111H535.653V100.164C535.653 97.092 534.369 95.556 531.801 95.556C530.601 95.556 529.617 95.976 528.849 96.816C528.105 97.656 527.733 98.808 527.733 100.272V111H523.377V91.992ZM559.348 108.696C557.476 106.848 556.54 104.472 556.54 101.568V101.496C556.54 98.736 557.404 96.408 559.132 94.512C560.908 92.568 563.14 91.596 565.828 91.596C568.708 91.596 570.988 92.616 572.668 94.656C574.18 96.528 574.936 98.916 574.936 101.82C574.936 101.94 574.924 102.108 574.9 102.324C574.9 102.516 574.888 102.756 574.864 103.044H560.896C561.16 104.556 561.784 105.744 562.768 106.608C563.752 107.448 564.952 107.868 566.368 107.868C568.264 107.868 569.98 107.112 571.516 105.6L574.072 107.868C572.104 110.244 569.512 111.432 566.296 111.432C563.488 111.432 561.172 110.52 559.348 108.696ZM570.616 100.164C570.472 98.676 569.992 97.488 569.176 96.6C568.312 95.64 567.184 95.16 565.792 95.16C564.496 95.16 563.392 95.628 562.48 96.564C561.592 97.452 561.052 98.652 560.86 100.164H570.616ZM589.913 105.744V95.736H587.501V91.992H589.913V86.772H594.269V91.992H599.381V95.736H594.269V105.06C594.269 106.644 595.049 107.436 596.609 107.436C597.545 107.436 598.445 107.22 599.309 106.788V110.352C598.157 111 596.849 111.324 595.385 111.324C591.737 111.324 589.913 109.464 589.913 105.744ZM605.123 108.552C603.203 106.632 602.243 104.316 602.243 101.604V101.532C602.243 98.772 603.203 96.432 605.123 94.512C607.115 92.568 609.539 91.596 612.395 91.596C615.251 91.596 617.663 92.556 619.631 94.476C621.551 96.396 622.511 98.724 622.511 101.46V101.532C622.511 104.268 621.551 106.596 619.631 108.516C617.663 110.46 615.227 111.432 612.323 111.432C609.443 111.432 607.043 110.472 605.123 108.552ZM616.607 105.852C617.639 104.724 618.155 103.308 618.155 101.604V101.532C618.155 99.828 617.615 98.388 616.535 97.212C615.407 96.012 614.003 95.412 612.323 95.412C610.619 95.412 609.227 96 608.147 97.176C607.115 98.304 606.599 99.732 606.599 101.46V101.532C606.599 103.188 607.139 104.616 608.219 105.816C609.347 107.016 610.739 107.616 612.395 107.616C614.123 107.616 615.527 107.028 616.607 105.852ZM638.244 85.8H648.18C651.108 85.8 653.448 86.568 655.2 88.104C656.904 89.664 657.756 91.704 657.756 94.224V94.296C657.756 97.032 656.772 99.168 654.804 100.704C652.98 102.168 650.604 102.9 647.676 102.9H642.672V111H638.244V85.8ZM647.82 98.904C649.476 98.904 650.796 98.484 651.78 97.644C652.764 96.804 653.256 95.724 653.256 94.404V94.332C653.256 92.892 652.764 91.776 651.78 90.984C650.796 90.216 649.476 89.832 647.82 89.832H642.672V98.904H647.82ZM663.335 109.416C662.159 108.096 661.571 106.32 661.571 104.088V91.992H665.927V102.792C665.927 105.864 667.283 107.4 669.995 107.4C671.267 107.4 672.299 106.992 673.091 106.176C673.883 105.336 674.279 104.184 674.279 102.72V91.992H678.671V111H674.279V108.048C672.767 110.28 670.787 111.396 668.339 111.396C666.227 111.396 664.559 110.736 663.335 109.416ZM688.467 108.048V111H684.111V84.72H688.467V95.16C690.171 92.784 692.331 91.596 694.947 91.596C697.299 91.596 699.327 92.448 701.031 94.152C702.855 95.976 703.767 98.412 703.767 101.46V101.532C703.767 104.556 702.855 106.992 701.031 108.84C699.375 110.544 697.347 111.396 694.947 111.396C692.331 111.396 690.171 110.28 688.467 108.048ZM697.755 105.96C698.811 104.832 699.339 103.356 699.339 101.532V101.46C699.339 99.66 698.799 98.184 697.719 97.032C696.687 95.928 695.415 95.376 693.903 95.376C692.391 95.376 691.095 95.94 690.015 97.068C688.911 98.196 688.359 99.66 688.359 101.46V101.532C688.359 103.332 688.911 104.796 690.015 105.924C691.095 107.052 692.391 107.616 693.903 107.616C695.439 107.616 696.723 107.064 697.755 105.96ZM708.515 84.72H712.871V111H708.515V84.72ZM718.636 84.936H723.316V89.076H718.636V84.936ZM718.816 91.992H723.172V111H718.816V91.992ZM729.715 108.552C727.843 106.632 726.907 104.316 726.907 101.604V101.532C726.907 98.772 727.843 96.444 729.715 94.548C731.611 92.58 733.975 91.596 736.807 91.596C739.855 91.596 742.387 92.688 744.403 94.872L741.667 97.788C740.155 96.204 738.523 95.412 736.771 95.412C735.187 95.412 733.879 96 732.847 97.176C731.791 98.376 731.263 99.804 731.263 101.46V101.532C731.263 103.212 731.791 104.652 732.847 105.852C733.927 107.028 735.295 107.616 736.951 107.616C738.727 107.616 740.371 106.836 741.883 105.276L744.511 107.868C742.399 110.244 739.807 111.432 736.735 111.432C733.927 111.432 731.587 110.472 729.715 108.552ZM760.68 107.688C758.304 105.264 757.116 102.192 757.116 98.472V98.4C757.116 94.824 758.328 91.764 760.752 89.22C763.248 86.652 766.368 85.368 770.112 85.368C773.856 85.368 777.084 86.508 779.796 88.788L776.988 92.136C774.876 90.336 772.524 89.436 769.932 89.436C767.628 89.436 765.684 90.312 764.1 92.064C762.54 93.816 761.76 95.904 761.76 98.328V98.4C761.76 100.992 762.54 103.14 764.1 104.844C765.732 106.548 767.808 107.4 770.328 107.4C772.68 107.4 774.708 106.764 776.412 105.492V100.776H769.968V96.924H780.696V107.508C777.648 110.124 774.144 111.432 770.184 111.432C766.296 111.432 763.128 110.184 760.68 107.688ZM786.031 84.936H790.711V89.076H786.031V84.936ZM786.211 91.992H790.567V111H786.211V91.992ZM794.711 108.516L796.655 105.564C798.791 107.124 800.867 107.904 802.883 107.904C804.851 107.904 805.835 107.22 805.835 105.852V105.78C805.835 105.132 805.403 104.592 804.539 104.16C804.323 104.04 803.963 103.896 803.459 103.728C802.979 103.56 802.355 103.356 801.587 103.116C799.763 102.612 798.419 102.036 797.555 101.388C796.283 100.452 795.647 99.168 795.647 97.536V97.464C795.647 95.712 796.307 94.296 797.627 93.216C798.875 92.184 800.471 91.668 802.415 91.668C804.887 91.668 807.215 92.388 809.399 93.828L807.671 96.924C805.679 95.724 803.891 95.124 802.307 95.124C800.531 95.124 799.643 95.748 799.643 96.996V97.068C799.643 97.668 800.075 98.208 800.939 98.688C801.179 98.808 801.539 98.952 802.019 99.12C802.523 99.288 803.159 99.504 803.927 99.768C807.863 100.992 809.831 102.84 809.831 105.312V105.384C809.831 107.304 809.147 108.804 807.779 109.884C806.507 110.868 804.839 111.36 802.775 111.36C799.799 111.36 797.111 110.412 794.711 108.516ZM814.843 105.744V95.736H812.431V91.992H814.843V86.772H819.199V91.992H824.311V95.736H819.199V105.06C819.199 106.644 819.979 107.436 821.539 107.436C822.475 107.436 823.375 107.22 824.239 106.788V110.352C823.087 111 821.779 111.324 820.315 111.324C816.667 111.324 814.843 109.464 814.843 105.744ZM827.196 108.516L829.14 105.564C831.276 107.124 833.352 107.904 835.368 107.904C837.336 107.904 838.32 107.22 838.32 105.852V105.78C838.32 105.132 837.888 104.592 837.024 104.16C836.808 104.04 836.448 103.896 835.944 103.728C835.464 103.56 834.84 103.356 834.072 103.116C832.248 102.612 830.904 102.036 830.04 101.388C828.768 100.452 828.132 99.168 828.132 97.536V97.464C828.132 95.712 828.792 94.296 830.112 93.216C831.36 92.184 832.956 91.668 834.9 91.668C837.372 91.668 839.7 92.388 841.884 93.828L840.156 96.924C838.164 95.724 836.376 95.124 834.792 95.124C833.016 95.124 832.128 95.748 832.128 96.996V97.068C832.128 97.668 832.56 98.208 833.424 98.688C833.664 98.808 834.024 98.952 834.504 99.12C835.008 99.288 835.644 99.504 836.412 99.768C840.348 100.992 842.316 102.84 842.316 105.312V105.384C842.316 107.304 841.632 108.804 840.264 109.884C838.992 110.868 837.324 111.36 835.26 111.36C832.284 111.36 829.596 110.412 827.196 108.516ZM846.923 87.06V85.8H852.035V87.06L850.703 103.008H848.291L846.923 87.06ZM847.103 106.032H851.891V111H847.103V106.032Z" fill="white"/>
<path d="M327.579 458H333.099C334.726 458 336.026 458.427 336.999 459.28C337.946 460.147 338.419 461.28 338.419 462.68V462.72C338.419 464.24 337.873 465.427 336.779 466.28C335.766 467.093 334.446 467.5 332.819 467.5H330.039V472H327.579V458ZM332.899 465.28C333.819 465.28 334.553 465.047 335.099 464.58C335.646 464.113 335.919 463.513 335.919 462.78V462.74C335.919 461.94 335.646 461.32 335.099 460.88C334.553 460.453 333.819 460.24 332.899 460.24H330.039V465.28H332.899ZM341.519 471.12C340.865 470.387 340.539 469.4 340.539 468.16V461.44H342.959V467.44C342.959 469.147 343.712 470 345.219 470C345.925 470 346.499 469.773 346.939 469.32C347.379 468.853 347.599 468.213 347.599 467.4V461.44H350.039V472H347.599V470.36C346.759 471.6 345.659 472.22 344.299 472.22C343.125 472.22 342.199 471.853 341.519 471.12ZM355.481 470.36V472H353.061V457.4H355.481V463.2C356.428 461.88 357.628 461.22 359.081 461.22C360.388 461.22 361.514 461.693 362.461 462.64C363.474 463.653 363.981 465.007 363.981 466.7V466.74C363.981 468.42 363.474 469.773 362.461 470.8C361.541 471.747 360.414 472.22 359.081 472.22C357.628 472.22 356.428 471.6 355.481 470.36ZM360.641 469.2C361.228 468.573 361.521 467.753 361.521 466.74V466.7C361.521 465.7 361.221 464.88 360.621 464.24C360.048 463.627 359.341 463.32 358.501 463.32C357.661 463.32 356.941 463.633 356.341 464.26C355.728 464.887 355.421 465.7 355.421 466.7V466.74C355.421 467.74 355.728 468.553 356.341 469.18C356.941 469.807 357.661 470.12 358.501 470.12C359.354 470.12 360.068 469.813 360.641 469.2ZM366.619 457.4H369.039V472H366.619V457.4ZM372.242 457.52H374.842V459.82H372.242V457.52ZM372.342 461.44H374.762V472H372.342V461.44ZM378.396 470.64C377.356 469.573 376.836 468.287 376.836 466.78V466.74C376.836 465.207 377.356 463.913 378.396 462.86C379.45 461.767 380.763 461.22 382.336 461.22C384.03 461.22 385.436 461.827 386.556 463.04L385.036 464.66C384.196 463.78 383.29 463.34 382.316 463.34C381.436 463.34 380.71 463.667 380.136 464.32C379.55 464.987 379.256 465.78 379.256 466.7V466.74C379.256 467.673 379.55 468.473 380.136 469.14C380.736 469.793 381.496 470.12 382.416 470.12C383.403 470.12 384.316 469.687 385.156 468.82L386.616 470.26C385.443 471.58 384.003 472.24 382.296 472.24C380.736 472.24 379.436 471.707 378.396 470.64ZM395.599 470.16C394.279 468.813 393.619 467.107 393.619 465.04V465C393.619 463.013 394.293 461.313 395.639 459.9C397.026 458.473 398.759 457.76 400.839 457.76C402.919 457.76 404.713 458.393 406.219 459.66L404.659 461.52C403.486 460.52 402.179 460.02 400.739 460.02C399.459 460.02 398.379 460.507 397.499 461.48C396.633 462.453 396.199 463.613 396.199 464.96V465C396.199 466.44 396.633 467.633 397.499 468.58C398.406 469.527 399.559 470 400.959 470C402.266 470 403.393 469.647 404.339 468.94V466.32H400.759V464.18H406.719V470.06C405.026 471.513 403.079 472.24 400.879 472.24C398.719 472.24 396.959 471.547 395.599 470.16ZM409.683 457.52H412.283V459.82H409.683V457.52ZM409.783 461.44H412.203V472H409.783V461.44ZM414.506 470.62L415.586 468.98C416.772 469.847 417.926 470.28 419.046 470.28C420.139 470.28 420.686 469.9 420.686 469.14V469.1C420.686 468.74 420.446 468.44 419.966 468.2C419.846 468.133 419.646 468.053 419.366 467.96C419.099 467.867 418.752 467.753 418.326 467.62C417.312 467.34 416.566 467.02 416.086 466.66C415.379 466.14 415.026 465.427 415.026 464.52V464.48C415.026 463.507 415.392 462.72 416.126 462.12C416.819 461.547 417.706 461.26 418.786 461.26C420.159 461.26 421.452 461.66 422.666 462.46L421.706 464.18C420.599 463.513 419.606 463.18 418.726 463.18C417.739 463.18 417.246 463.527 417.246 464.22V464.26C417.246 464.593 417.486 464.893 417.966 465.16C418.099 465.227 418.299 465.307 418.566 465.4C418.846 465.493 419.199 465.613 419.626 465.76C421.812 466.44 422.906 467.467 422.906 468.84V468.88C422.906 469.947 422.526 470.78 421.766 471.38C421.059 471.927 420.132 472.2 418.986 472.2C417.332 472.2 415.839 471.673 414.506 470.62ZM425.69 469.08V463.52H424.35V461.44H425.69V458.54H428.11V461.44H430.95V463.52H428.11V468.7C428.11 469.58 428.543 470.02 429.41 470.02C429.93 470.02 430.43 469.9 430.91 469.66V471.64C430.27 472 429.543 472.18 428.73 472.18C426.703 472.18 425.69 471.147 425.69 469.08ZM432.553 470.62L433.633 468.98C434.819 469.847 435.973 470.28 437.093 470.28C438.186 470.28 438.733 469.9 438.733 469.14V469.1C438.733 468.74 438.493 468.44 438.013 468.2C437.893 468.133 437.693 468.053 437.413 467.96C437.146 467.867 436.799 467.753 436.373 467.62C435.359 467.34 434.613 467.02 434.133 466.66C433.426 466.14 433.073 465.427 433.073 464.52V464.48C433.073 463.507 433.439 462.72 434.173 462.12C434.866 461.547 435.753 461.26 436.833 461.26C438.206 461.26 439.499 461.66 440.713 462.46L439.753 464.18C438.646 463.513 437.653 463.18 436.773 463.18C435.786 463.18 435.293 463.527 435.293 464.22V464.26C435.293 464.593 435.533 464.893 436.013 465.16C436.146 465.227 436.346 465.307 436.613 465.4C436.893 465.493 437.246 465.613 437.673 465.76C439.859 466.44 440.953 467.467 440.953 468.84V468.88C440.953 469.947 440.573 470.78 439.813 471.38C439.106 471.927 438.179 472.2 437.033 472.2C435.379 472.2 433.886 471.673 432.553 470.62ZM449.468 457.52H452.068V459.82H449.468V457.52ZM449.568 461.44H451.988V472H449.568V461.44ZM454.291 470.62L455.371 468.98C456.558 469.847 457.711 470.28 458.831 470.28C459.924 470.28 460.471 469.9 460.471 469.14V469.1C460.471 468.74 460.231 468.44 459.751 468.2C459.631 468.133 459.431 468.053 459.151 467.96C458.884 467.867 458.538 467.753 458.111 467.62C457.098 467.34 456.351 467.02 455.871 466.66C455.164 466.14 454.811 465.427 454.811 464.52V464.48C454.811 463.507 455.178 462.72 455.911 462.12C456.604 461.547 457.491 461.26 458.571 461.26C459.944 461.26 461.238 461.66 462.451 462.46L461.491 464.18C460.384 463.513 459.391 463.18 458.511 463.18C457.524 463.18 457.031 463.527 457.031 464.22V464.26C457.031 464.593 457.271 464.893 457.751 465.16C457.884 465.227 458.084 465.307 458.351 465.4C458.631 465.493 458.984 465.613 459.411 465.76C461.598 466.44 462.691 467.467 462.691 468.84V468.88C462.691 469.947 462.311 470.78 461.551 471.38C460.844 471.927 459.918 472.2 458.771 472.2C457.118 472.2 455.624 471.673 454.291 470.62ZM469.251 461.44H471.731L473.851 468.68L476.191 461.4H478.271L480.611 468.68L482.771 461.44H485.211L481.751 472.08H479.571L477.211 464.86L474.831 472.08H472.671L469.251 461.44ZM487.358 457.4H489.778V463.06C490.645 461.833 491.745 461.22 493.078 461.22C494.251 461.22 495.178 461.587 495.858 462.32C496.511 463.027 496.838 464.007 496.838 465.26V472H494.418V466C494.418 464.28 493.665 463.42 492.158 463.42C491.451 463.42 490.878 463.653 490.438 464.12C489.998 464.573 489.778 465.213 489.778 466.04V472H487.358V457.4ZM500.74 470.72C499.7 469.693 499.18 468.373 499.18 466.76V466.72C499.18 465.187 499.66 463.893 500.62 462.84C501.607 461.76 502.847 461.22 504.34 461.22C505.94 461.22 507.207 461.787 508.14 462.92C508.98 463.96 509.4 465.287 509.4 466.9C509.4 466.967 509.394 467.06 509.38 467.18C509.38 467.287 509.374 467.42 509.36 467.58H501.6C501.747 468.42 502.094 469.08 502.64 469.56C503.187 470.027 503.854 470.26 504.64 470.26C505.694 470.26 506.647 469.84 507.5 469L508.92 470.26C507.827 471.58 506.387 472.24 504.6 472.24C503.04 472.24 501.754 471.733 500.74 470.72ZM507 465.98C506.92 465.153 506.654 464.493 506.2 464C505.72 463.467 505.094 463.2 504.32 463.2C503.6 463.2 502.987 463.46 502.48 463.98C501.987 464.473 501.687 465.14 501.58 465.98H507ZM511.831 461.44H514.251V463.82C514.997 462.02 516.244 461.16 517.991 461.24V463.8H517.851C516.757 463.8 515.891 464.147 515.251 464.84C514.584 465.587 514.251 466.633 514.251 467.98V472H511.831V461.44ZM520.721 470.72C519.681 469.693 519.161 468.373 519.161 466.76V466.72C519.161 465.187 519.641 463.893 520.601 462.84C521.587 461.76 522.827 461.22 524.321 461.22C525.921 461.22 527.187 461.787 528.121 462.92C528.961 463.96 529.381 465.287 529.381 466.9C529.381 466.967 529.374 467.06 529.361 467.18C529.361 467.287 529.354 467.42 529.341 467.58H521.581C521.727 468.42 522.074 469.08 522.621 469.56C523.167 470.027 523.834 470.26 524.621 470.26C525.674 470.26 526.627 469.84 527.481 469L528.901 470.26C527.807 471.58 526.367 472.24 524.581 472.24C523.021 472.24 521.734 471.733 520.721 470.72ZM526.981 465.98C526.901 465.153 526.634 464.493 526.181 464C525.701 463.467 525.074 463.2 524.301 463.2C523.581 463.2 522.967 463.46 522.461 463.98C521.967 464.473 521.667 465.14 521.561 465.98H526.981ZM544.19 461.44H546.71L542.51 472.3C542.096 473.367 541.623 474.127 541.09 474.58C540.583 475.033 539.896 475.26 539.03 475.26C538.15 475.26 537.316 475.047 536.53 474.62L537.35 472.82C537.856 473.087 538.33 473.22 538.77 473.22C539.41 473.22 539.91 472.82 540.27 472.02L535.87 461.44H538.47L541.45 469.28L544.19 461.44ZM549.198 470.64C548.132 469.573 547.598 468.287 547.598 466.78V466.74C547.598 465.207 548.132 463.907 549.198 462.84C550.305 461.76 551.652 461.22 553.238 461.22C554.825 461.22 556.165 461.753 557.258 462.82C558.325 463.887 558.858 465.18 558.858 466.7V466.74C558.858 468.26 558.325 469.553 557.258 470.62C556.165 471.7 554.812 472.24 553.198 472.24C551.598 472.24 550.265 471.707 549.198 470.64ZM555.578 469.14C556.152 468.513 556.438 467.727 556.438 466.78V466.74C556.438 465.793 556.138 464.993 555.538 464.34C554.912 463.673 554.132 463.34 553.198 463.34C552.252 463.34 551.478 463.667 550.878 464.32C550.305 464.947 550.018 465.74 550.018 466.7V466.74C550.018 467.66 550.318 468.453 550.918 469.12C551.545 469.787 552.318 470.12 553.238 470.12C554.198 470.12 554.978 469.793 555.578 469.14ZM562.183 471.12C561.529 470.387 561.203 469.4 561.203 468.16V461.44H563.623V467.44C563.623 469.147 564.376 470 565.883 470C566.589 470 567.163 469.773 567.603 469.32C568.043 468.853 568.263 468.213 568.263 467.4V461.44H570.703V472H568.263V470.36C567.423 471.6 566.323 472.22 564.963 472.22C563.789 472.22 562.863 471.853 562.183 471.12ZM580.193 470.64C579.153 469.573 578.633 468.287 578.633 466.78V466.74C578.633 465.207 579.153 463.913 580.193 462.86C581.247 461.767 582.56 461.22 584.133 461.22C585.827 461.22 587.233 461.827 588.353 463.04L586.833 464.66C585.993 463.78 585.087 463.34 584.113 463.34C583.233 463.34 582.507 463.667 581.933 464.32C581.347 464.987 581.053 465.78 581.053 466.7V466.74C581.053 467.673 581.347 468.473 581.933 469.14C582.533 469.793 583.293 470.12 584.213 470.12C585.2 470.12 586.113 469.687 586.953 468.82L588.413 470.26C587.24 471.58 585.8 472.24 584.093 472.24C582.533 472.24 581.233 471.707 580.193 470.64ZM591.059 471.38C590.312 470.78 589.939 469.973 589.939 468.96V468.92C589.939 467.813 590.346 466.96 591.159 466.36C591.919 465.8 592.966 465.52 594.299 465.52C595.299 465.52 596.246 465.667 597.139 465.96V465.7C597.139 464.167 596.266 463.4 594.519 463.4C593.572 463.4 592.566 463.62 591.499 464.06L590.859 462.16C592.126 461.587 593.452 461.3 594.839 461.3C596.412 461.3 597.579 461.693 598.339 462.48C599.099 463.213 599.479 464.3 599.479 465.74V472H597.119V470.68C596.252 471.707 595.106 472.22 593.679 472.22C592.639 472.22 591.766 471.94 591.059 471.38ZM596.379 469.84C596.912 469.427 597.179 468.88 597.179 468.2V467.48C596.459 467.2 595.659 467.06 594.779 467.06C593.126 467.06 592.299 467.647 592.299 468.82V468.86C592.299 469.34 592.499 469.733 592.899 470.04C593.286 470.32 593.772 470.46 594.359 470.46C595.172 470.46 595.846 470.253 596.379 469.84ZM602.377 461.44H604.797V463.06C605.664 461.833 606.764 461.22 608.097 461.22C609.271 461.22 610.197 461.587 610.877 462.32C611.531 463.027 611.857 464.007 611.857 465.26V472H609.437V466C609.437 464.28 608.684 463.42 607.177 463.42C606.471 463.42 605.897 463.653 605.457 464.12C605.017 464.573 604.797 465.213 604.797 466.04V472H602.377V461.44ZM619.916 470.62L620.996 468.98C622.183 469.847 623.336 470.28 624.456 470.28C625.549 470.28 626.096 469.9 626.096 469.14V469.1C626.096 468.74 625.856 468.44 625.376 468.2C625.256 468.133 625.056 468.053 624.776 467.96C624.509 467.867 624.163 467.753 623.736 467.62C622.723 467.34 621.976 467.02 621.496 466.66C620.789 466.14 620.436 465.427 620.436 464.52V464.48C620.436 463.507 620.803 462.72 621.536 462.12C622.229 461.547 623.116 461.26 624.196 461.26C625.569 461.26 626.863 461.66 628.076 462.46L627.116 464.18C626.009 463.513 625.016 463.18 624.136 463.18C623.149 463.18 622.656 463.527 622.656 464.22V464.26C622.656 464.593 622.896 464.893 623.376 465.16C623.509 465.227 623.709 465.307 623.976 465.4C624.256 465.493 624.609 465.613 625.036 465.76C627.223 466.44 628.316 467.467 628.316 468.84V468.88C628.316 469.947 627.936 470.78 627.176 471.38C626.469 471.927 625.543 472.2 624.396 472.2C622.743 472.2 621.249 471.673 619.916 470.62ZM631.775 470.72C630.735 469.693 630.215 468.373 630.215 466.76V466.72C630.215 465.187 630.695 463.893 631.655 462.84C632.642 461.76 633.882 461.22 635.375 461.22C636.975 461.22 638.242 461.787 639.175 462.92C640.015 463.96 640.435 465.287 640.435 466.9C640.435 466.967 640.429 467.06 640.415 467.18C640.415 467.287 640.409 467.42 640.395 467.58H632.635C632.782 468.42 633.129 469.08 633.675 469.56C634.222 470.027 634.889 470.26 635.675 470.26C636.729 470.26 637.682 469.84 638.535 469L639.955 470.26C638.862 471.58 637.422 472.24 635.635 472.24C634.075 472.24 632.789 471.733 631.775 470.72ZM638.035 465.98C637.955 465.153 637.689 464.493 637.235 464C636.755 463.467 636.129 463.2 635.355 463.2C634.635 463.2 634.022 463.46 633.515 463.98C633.022 464.473 632.722 465.14 632.615 465.98H638.035ZM643.846 470.72C642.806 469.693 642.286 468.373 642.286 466.76V466.72C642.286 465.187 642.766 463.893 643.726 462.84C644.712 461.76 645.952 461.22 647.446 461.22C649.046 461.22 650.312 461.787 651.246 462.92C652.086 463.96 652.506 465.287 652.506 466.9C652.506 466.967 652.499 467.06 652.486 467.18C652.486 467.287 652.479 467.42 652.466 467.58H644.706C644.852 468.42 645.199 469.08 645.746 469.56C646.292 470.027 646.959 470.26 647.746 470.26C648.799 470.26 649.752 469.84 650.606 469L652.026 470.26C650.932 471.58 649.492 472.24 647.706 472.24C646.146 472.24 644.859 471.733 643.846 470.72ZM650.106 465.98C650.026 465.153 649.759 464.493 649.306 464C648.826 463.467 648.199 463.2 647.426 463.2C646.706 463.2 646.092 463.46 645.586 463.98C645.092 464.473 644.792 465.14 644.686 465.98H650.106ZM661.404 470.64C660.364 469.573 659.844 468.287 659.844 466.78V466.74C659.844 465.207 660.364 463.913 661.404 462.86C662.458 461.767 663.771 461.22 665.344 461.22C667.038 461.22 668.444 461.827 669.564 463.04L668.044 464.66C667.204 463.78 666.298 463.34 665.324 463.34C664.444 463.34 663.718 463.667 663.144 464.32C662.558 464.987 662.264 465.78 662.264 466.7V466.74C662.264 467.673 662.558 468.473 663.144 469.14C663.744 469.793 664.504 470.12 665.424 470.12C666.411 470.12 667.324 469.687 668.164 468.82L669.624 470.26C668.451 471.58 667.011 472.24 665.304 472.24C663.744 472.24 662.444 471.707 661.404 470.64ZM672.577 470.64C671.51 469.573 670.977 468.287 670.977 466.78V466.74C670.977 465.207 671.51 463.907 672.577 462.84C673.684 461.76 675.03 461.22 676.617 461.22C678.204 461.22 679.544 461.753 680.637 462.82C681.704 463.887 682.237 465.18 682.237 466.7V466.74C682.237 468.26 681.704 469.553 680.637 470.62C679.544 471.7 678.19 472.24 676.577 472.24C674.977 472.24 673.644 471.707 672.577 470.64ZM678.957 469.14C679.53 468.513 679.817 467.727 679.817 466.78V466.74C679.817 465.793 679.517 464.993 678.917 464.34C678.29 463.673 677.51 463.34 676.577 463.34C675.63 463.34 674.857 463.667 674.257 464.32C673.684 464.947 673.397 465.74 673.397 466.7V466.74C673.397 467.66 673.697 468.453 674.297 469.12C674.924 469.787 675.697 470.12 676.617 470.12C677.577 470.12 678.357 469.793 678.957 469.14ZM685.682 470.8C684.668 469.773 684.162 468.42 684.162 466.74V466.7C684.162 465.007 684.662 463.653 685.662 462.64C686.608 461.693 687.742 461.22 689.062 461.22C690.528 461.22 691.728 461.84 692.662 463.08V457.4H695.082V472H692.662V470.24C691.728 471.56 690.528 472.22 689.062 472.22C687.755 472.22 686.628 471.747 685.682 470.8ZM691.782 469.18C692.395 468.553 692.702 467.74 692.702 466.74V466.7C692.702 465.713 692.395 464.893 691.782 464.24C691.208 463.627 690.495 463.32 689.642 463.32C688.802 463.32 688.088 463.62 687.502 464.22C686.902 464.833 686.602 465.66 686.602 466.7V466.74C686.602 467.74 686.902 468.56 687.502 469.2C688.075 469.813 688.788 470.12 689.642 470.12C690.482 470.12 691.195 469.807 691.782 469.18ZM698.592 470.72C697.552 469.693 697.032 468.373 697.032 466.76V466.72C697.032 465.187 697.512 463.893 698.472 462.84C699.458 461.76 700.698 461.22 702.192 461.22C703.792 461.22 705.058 461.787 705.992 462.92C706.832 463.96 707.252 465.287 707.252 466.9C707.252 466.967 707.245 467.06 707.232 467.18C707.232 467.287 707.225 467.42 707.212 467.58H699.452C699.598 468.42 699.945 469.08 700.492 469.56C701.038 470.027 701.705 470.26 702.492 470.26C703.545 470.26 704.498 469.84 705.352 469L706.772 470.26C705.678 471.58 704.238 472.24 702.452 472.24C700.892 472.24 699.605 471.733 698.592 470.72ZM704.852 465.98C704.772 465.153 704.505 464.493 704.052 464C703.572 463.467 702.945 463.2 702.172 463.2C701.452 463.2 700.838 463.46 700.332 463.98C699.838 464.473 699.538 465.14 699.432 465.98H704.852ZM708.822 470.62L709.902 468.98C711.089 469.847 712.242 470.28 713.362 470.28C714.455 470.28 715.002 469.9 715.002 469.14V469.1C715.002 468.74 714.762 468.44 714.282 468.2C714.162 468.133 713.962 468.053 713.682 467.96C713.415 467.867 713.069 467.753 712.642 467.62C711.629 467.34 710.882 467.02 710.402 466.66C709.695 466.14 709.342 465.427 709.342 464.52V464.48C709.342 463.507 709.709 462.72 710.442 462.12C711.135 461.547 712.022 461.26 713.102 461.26C714.475 461.26 715.769 461.66 716.982 462.46L716.022 464.18C714.915 463.513 713.922 463.18 713.042 463.18C712.055 463.18 711.562 463.527 711.562 464.22V464.26C711.562 464.593 711.802 464.893 712.282 465.16C712.415 465.227 712.615 465.307 712.882 465.4C713.162 465.493 713.515 465.613 713.942 465.76C716.129 466.44 717.222 467.467 717.222 468.84V468.88C717.222 469.947 716.842 470.78 716.082 471.38C715.375 471.927 714.449 472.2 713.302 472.2C711.649 472.2 710.155 471.673 708.822 470.62ZM725.698 461.44H728.118V463.2C729.064 461.88 730.264 461.22 731.718 461.22C733.024 461.22 734.151 461.693 735.098 462.64C736.111 463.653 736.618 465.007 736.618 466.7V466.74C736.618 468.42 736.111 469.773 735.098 470.8C734.178 471.747 733.051 472.22 731.718 472.22C730.264 472.22 729.064 471.6 728.118 470.36V475.2H725.698V461.44ZM733.278 469.2C733.864 468.573 734.158 467.753 734.158 466.74V466.7C734.158 465.7 733.858 464.88 733.258 464.24C732.684 463.627 731.978 463.32 731.138 463.32C730.298 463.32 729.578 463.633 728.978 464.26C728.364 464.887 728.058 465.7 728.058 466.7V466.74C728.058 467.74 728.364 468.553 728.978 469.18C729.578 469.807 730.298 470.12 731.138 470.12C731.991 470.12 732.704 469.813 733.278 469.2ZM740.136 470.64C739.069 469.573 738.536 468.287 738.536 466.78V466.74C738.536 465.207 739.069 463.907 740.136 462.84C741.242 461.76 742.589 461.22 744.176 461.22C745.762 461.22 747.102 461.753 748.196 462.82C749.262 463.887 749.796 465.18 749.796 466.7V466.74C749.796 468.26 749.262 469.553 748.196 470.62C747.102 471.7 745.749 472.24 744.136 472.24C742.536 472.24 741.202 471.707 740.136 470.64ZM746.516 469.14C747.089 468.513 747.376 467.727 747.376 466.78V466.74C747.376 465.793 747.076 464.993 746.476 464.34C745.849 463.673 745.069 463.34 744.136 463.34C743.189 463.34 742.416 463.667 741.816 464.32C741.242 464.947 740.956 465.74 740.956 466.7V466.74C740.956 467.66 741.256 468.453 741.856 469.12C742.482 469.787 743.256 470.12 744.176 470.12C745.136 470.12 745.916 469.793 746.516 469.14ZM751.4 470.62L752.48 468.98C753.667 469.847 754.82 470.28 755.94 470.28C757.034 470.28 757.58 469.9 757.58 469.14V469.1C757.58 468.74 757.34 468.44 756.86 468.2C756.74 468.133 756.54 468.053 756.26 467.96C755.994 467.867 755.647 467.753 755.22 467.62C754.207 467.34 753.46 467.02 752.98 466.66C752.274 466.14 751.92 465.427 751.92 464.52V464.48C751.92 463.507 752.287 462.72 753.02 462.12C753.714 461.547 754.6 461.26 755.68 461.26C757.054 461.26 758.347 461.66 759.56 462.46L758.6 464.18C757.494 463.513 756.5 463.18 755.62 463.18C754.634 463.18 754.14 463.527 754.14 464.22V464.26C754.14 464.593 754.38 464.893 754.86 465.16C754.994 465.227 755.194 465.307 755.46 465.4C755.74 465.493 756.094 465.613 756.52 465.76C758.707 466.44 759.8 467.467 759.8 468.84V468.88C759.8 469.947 759.42 470.78 758.66 471.38C757.954 471.927 757.027 472.2 755.88 472.2C754.227 472.2 752.734 471.673 751.4 470.62ZM762.584 469.08V463.52H761.244V461.44H762.584V458.54H765.004V461.44H767.844V463.52H765.004V468.7C765.004 469.58 765.438 470.02 766.304 470.02C766.824 470.02 767.324 469.9 767.804 469.66V471.64C767.164 472 766.438 472.18 765.624 472.18C763.598 472.18 762.584 471.147 762.584 469.08ZM770.994 470.72C769.954 469.693 769.434 468.373 769.434 466.76V466.72C769.434 465.187 769.914 463.893 770.874 462.84C771.861 461.76 773.101 461.22 774.594 461.22C776.194 461.22 777.461 461.787 778.394 462.92C779.234 463.96 779.654 465.287 779.654 466.9C779.654 466.967 779.647 467.06 779.634 467.18C779.634 467.287 779.627 467.42 779.614 467.58H771.854C772.001 468.42 772.347 469.08 772.894 469.56C773.441 470.027 774.107 470.26 774.894 470.26C775.947 470.26 776.901 469.84 777.754 469L779.174 470.26C778.081 471.58 776.641 472.24 774.854 472.24C773.294 472.24 772.007 471.733 770.994 470.72ZM777.254 465.98C777.174 465.153 776.907 464.493 776.454 464C775.974 463.467 775.347 463.2 774.574 463.2C773.854 463.2 773.241 463.46 772.734 463.98C772.241 464.473 771.941 465.14 771.834 465.98H777.254ZM783.064 470.8C782.051 469.773 781.544 468.42 781.544 466.74V466.7C781.544 465.007 782.044 463.653 783.044 462.64C783.991 461.693 785.124 461.22 786.444 461.22C787.911 461.22 789.111 461.84 790.044 463.08V457.4H792.464V472H790.044V470.24C789.111 471.56 787.911 472.22 786.444 472.22C785.138 472.22 784.011 471.747 783.064 470.8ZM789.164 469.18C789.778 468.553 790.084 467.74 790.084 466.74V466.7C790.084 465.713 789.778 464.893 789.164 464.24C788.591 463.627 787.878 463.32 787.024 463.32C786.184 463.32 785.471 463.62 784.884 464.22C784.284 464.833 783.984 465.66 783.984 466.7V466.74C783.984 467.74 784.284 468.56 784.884 469.2C785.458 469.813 786.171 470.12 787.024 470.12C787.864 470.12 788.578 469.807 789.164 469.18ZM803.919 470.36V472H801.499V457.4H803.919V463.2C804.865 461.88 806.065 461.22 807.519 461.22C808.825 461.22 809.952 461.693 810.899 462.64C811.912 463.653 812.419 465.007 812.419 466.7V466.74C812.419 468.42 811.912 469.773 810.899 470.8C809.979 471.747 808.852 472.22 807.519 472.22C806.065 472.22 804.865 471.6 803.919 470.36ZM809.079 469.2C809.665 468.573 809.959 467.753 809.959 466.74V466.7C809.959 465.7 809.659 464.88 809.059 464.24C808.485 463.627 807.779 463.32 806.939 463.32C806.099 463.32 805.379 463.633 804.779 464.26C804.165 464.887 803.859 465.7 803.859 466.7V466.74C803.859 467.74 804.165 468.553 804.779 469.18C805.379 469.807 806.099 470.12 806.939 470.12C807.792 470.12 808.505 469.813 809.079 469.2ZM821.729 461.44H824.249L820.049 472.3C819.635 473.367 819.162 474.127 818.629 474.58C818.122 475.033 817.435 475.26 816.569 475.26C815.689 475.26 814.855 475.047 814.069 474.62L814.889 472.82C815.395 473.087 815.869 473.22 816.309 473.22C816.949 473.22 817.449 472.82 817.809 472.02L813.409 461.44H816.009L818.989 469.28L821.729 461.44ZM832.213 469.08V463.52H830.873V461.44H832.213V458.54H834.633V461.44H837.473V463.52H834.633V468.7C834.633 469.58 835.067 470.02 835.933 470.02C836.453 470.02 836.953 469.9 837.433 469.66V471.64C836.793 472 836.067 472.18 835.253 472.18C833.227 472.18 832.213 471.147 832.213 469.08ZM839.936 457.4H842.356V463.06C843.223 461.833 844.323 461.22 845.656 461.22C846.829 461.22 847.756 461.587 848.436 462.32C849.089 463.027 849.416 464.007 849.416 465.26V472H846.996V466C846.996 464.28 846.243 463.42 844.736 463.42C844.029 463.42 843.456 463.653 843.016 464.12C842.576 464.573 842.356 465.213 842.356 466.04V472H839.936V457.4ZM853.318 470.72C852.278 469.693 851.758 468.373 851.758 466.76V466.72C851.758 465.187 852.238 463.893 853.198 462.84C854.185 461.76 855.425 461.22 856.918 461.22C858.518 461.22 859.785 461.787 860.718 462.92C861.558 463.96 861.978 465.287 861.978 466.9C861.978 466.967 861.972 467.06 861.958 467.18C861.958 467.287 861.952 467.42 861.938 467.58H854.178C854.325 468.42 854.672 469.08 855.218 469.56C855.765 470.027 856.432 470.26 857.218 470.26C858.272 470.26 859.225 469.84 860.078 469L861.498 470.26C860.405 471.58 858.965 472.24 857.178 472.24C855.618 472.24 854.332 471.733 853.318 470.72ZM859.578 465.98C859.498 465.153 859.232 464.493 858.778 464C858.298 463.467 857.672 463.2 856.898 463.2C856.178 463.2 855.565 463.46 855.058 463.98C854.565 464.473 854.265 465.14 854.158 465.98H859.578ZM870.405 461.44H872.825V463.2C873.771 461.88 874.971 461.22 876.425 461.22C877.731 461.22 878.858 461.693 879.805 462.64C880.818 463.653 881.325 465.007 881.325 466.7V466.74C881.325 468.42 880.818 469.773 879.805 470.8C878.885 471.747 877.758 472.22 876.425 472.22C874.971 472.22 873.771 471.6 872.825 470.36V475.2H870.405V461.44ZM877.985 469.2C878.571 468.573 878.865 467.753 878.865 466.74V466.7C878.865 465.7 878.565 464.88 877.965 464.24C877.391 463.627 876.685 463.32 875.845 463.32C875.005 463.32 874.285 463.633 873.685 464.26C873.071 464.887 872.765 465.7 872.765 466.7V466.74C872.765 467.74 873.071 468.553 873.685 469.18C874.285 469.807 875.005 470.12 875.845 470.12C876.698 470.12 877.411 469.813 877.985 469.2ZM884.803 470.72C883.763 469.693 883.243 468.373 883.243 466.76V466.72C883.243 465.187 883.723 463.893 884.683 462.84C885.669 461.76 886.909 461.22 888.403 461.22C890.003 461.22 891.269 461.787 892.203 462.92C893.043 463.96 893.463 465.287 893.463 466.9C893.463 466.967 893.456 467.06 893.443 467.18C893.443 467.287 893.436 467.42 893.423 467.58H885.663C885.809 468.42 886.156 469.08 886.703 469.56C887.249 470.027 887.916 470.26 888.703 470.26C889.756 470.26 890.709 469.84 891.563 469L892.983 470.26C891.889 471.58 890.449 472.24 888.663 472.24C887.103 472.24 885.816 471.733 884.803 470.72ZM891.063 465.98C890.983 465.153 890.716 464.493 890.263 464C889.783 463.467 889.156 463.2 888.383 463.2C887.663 463.2 887.049 463.46 886.543 463.98C886.049 464.473 885.749 465.14 885.643 465.98H891.063ZM896.913 470.64C895.846 469.573 895.313 468.287 895.313 466.78V466.74C895.313 465.207 895.846 463.907 896.913 462.84C898.02 461.76 899.366 461.22 900.953 461.22C902.54 461.22 903.88 461.753 904.973 462.82C906.04 463.887 906.573 465.18 906.573 466.7V466.74C906.573 468.26 906.04 469.553 904.973 470.62C903.88 471.7 902.526 472.24 900.913 472.24C899.313 472.24 897.98 471.707 896.913 470.64ZM903.293 469.14C903.866 468.513 904.153 467.727 904.153 466.78V466.74C904.153 465.793 903.853 464.993 903.253 464.34C902.626 463.673 901.846 463.34 900.913 463.34C899.966 463.34 899.193 463.667 898.593 464.32C898.02 464.947 897.733 465.74 897.733 466.7V466.74C897.733 467.66 898.033 468.453 898.633 469.12C899.26 469.787 900.033 470.12 900.953 470.12C901.913 470.12 902.693 469.793 903.293 469.14ZM909.038 461.44H911.458V463.2C912.404 461.88 913.604 461.22 915.058 461.22C916.364 461.22 917.491 461.693 918.438 462.64C919.451 463.653 919.958 465.007 919.958 466.7V466.74C919.958 468.42 919.451 469.773 918.438 470.8C917.518 471.747 916.391 472.22 915.058 472.22C913.604 472.22 912.404 471.6 911.458 470.36V475.2H909.038V461.44ZM916.618 469.2C917.204 468.573 917.498 467.753 917.498 466.74V466.7C917.498 465.7 917.198 464.88 916.598 464.24C916.024 463.627 915.318 463.32 914.478 463.32C913.638 463.32 912.918 463.633 912.318 464.26C911.704 464.887 911.398 465.7 911.398 466.7V466.74C911.398 467.74 911.704 468.553 912.318 469.18C912.918 469.807 913.638 470.12 914.478 470.12C915.331 470.12 916.044 469.813 916.618 469.2ZM922.596 457.4H925.016V472H922.596V457.4ZM928.65 470.72C927.61 469.693 927.09 468.373 927.09 466.76V466.72C927.09 465.187 927.57 463.893 928.53 462.84C929.517 461.76 930.757 461.22 932.25 461.22C933.85 461.22 935.117 461.787 936.05 462.92C936.89 463.96 937.31 465.287 937.31 466.9C937.31 466.967 937.304 467.06 937.29 467.18C937.29 467.287 937.284 467.42 937.27 467.58H929.51C929.657 468.42 930.004 469.08 930.55 469.56C931.097 470.027 931.764 470.26 932.55 470.26C933.604 470.26 934.557 469.84 935.41 469L936.83 470.26C935.737 471.58 934.297 472.24 932.51 472.24C930.95 472.24 929.664 471.733 928.65 470.72ZM934.91 465.98C934.83 465.153 934.564 464.493 934.11 464C933.63 463.467 933.004 463.2 932.23 463.2C931.51 463.2 930.897 463.46 930.39 463.98C929.897 464.473 929.597 465.14 929.49 465.98H934.91ZM473.047 494.44H475.567L471.367 505.3C470.954 506.367 470.48 507.127 469.947 507.58C469.44 508.033 468.754 508.26 467.887 508.26C467.007 508.26 466.174 508.047 465.387 507.62L466.207 505.82C466.714 506.087 467.187 506.22 467.627 506.22C468.267 506.22 468.767 505.82 469.127 505.02L464.727 494.44H467.327L470.307 502.28L473.047 494.44ZM478.056 503.64C476.989 502.573 476.456 501.287 476.456 499.78V499.74C476.456 498.207 476.989 496.907 478.056 495.84C479.162 494.76 480.509 494.22 482.096 494.22C483.682 494.22 485.022 494.753 486.116 495.82C487.182 496.887 487.716 498.18 487.716 499.7V499.74C487.716 501.26 487.182 502.553 486.116 503.62C485.022 504.7 483.669 505.24 482.056 505.24C480.456 505.24 479.122 504.707 478.056 503.64ZM484.436 502.14C485.009 501.513 485.296 500.727 485.296 499.78V499.74C485.296 498.793 484.996 497.993 484.396 497.34C483.769 496.673 482.989 496.34 482.056 496.34C481.109 496.34 480.336 496.667 479.736 497.32C479.162 497.947 478.876 498.74 478.876 499.7V499.74C478.876 500.66 479.176 501.453 479.776 502.12C480.402 502.787 481.176 503.12 482.096 503.12C483.056 503.12 483.836 502.793 484.436 502.14ZM491.04 504.12C490.387 503.387 490.06 502.4 490.06 501.16V494.44H492.48V500.44C492.48 502.147 493.233 503 494.74 503C495.447 503 496.02 502.773 496.46 502.32C496.9 501.853 497.12 501.213 497.12 500.4V494.44H499.56V505H497.12V503.36C496.28 504.6 495.18 505.22 493.82 505.22C492.647 505.22 491.72 504.853 491.04 504.12ZM508.728 496.52H507.388V494.5H508.728V493.72C508.728 492.56 509.015 491.693 509.588 491.12C510.148 490.56 510.941 490.28 511.968 490.28C512.635 490.28 513.288 490.373 513.928 490.56V492.6C513.421 492.427 512.948 492.34 512.508 492.34C511.575 492.34 511.108 492.873 511.108 493.94V494.52H513.908V496.52H511.148V505H508.728V496.52ZM516.532 503.64C515.466 502.573 514.932 501.287 514.932 499.78V499.74C514.932 498.207 515.466 496.907 516.532 495.84C517.639 494.76 518.986 494.22 520.572 494.22C522.159 494.22 523.499 494.753 524.592 495.82C525.659 496.887 526.192 498.18 526.192 499.7V499.74C526.192 501.26 525.659 502.553 524.592 503.62C523.499 504.7 522.146 505.24 520.532 505.24C518.932 505.24 517.599 504.707 516.532 503.64ZM522.912 502.14C523.486 501.513 523.772 500.727 523.772 499.78V499.74C523.772 498.793 523.472 497.993 522.872 497.34C522.246 496.673 521.466 496.34 520.532 496.34C519.586 496.34 518.812 496.667 518.212 497.32C517.639 497.947 517.352 498.74 517.352 499.7V499.74C517.352 500.66 517.652 501.453 518.252 502.12C518.879 502.787 519.652 503.12 520.572 503.12C521.532 503.12 522.312 502.793 522.912 502.14ZM528.797 490.4H531.217V505H528.797V490.4ZM534.519 490.4H536.939V505H534.519V490.4ZM540.614 503.64C539.548 502.573 539.014 501.287 539.014 499.78V499.74C539.014 498.207 539.548 496.907 540.614 495.84C541.721 494.76 543.068 494.22 544.654 494.22C546.241 494.22 547.581 494.753 548.674 495.82C549.741 496.887 550.274 498.18 550.274 499.7V499.74C550.274 501.26 549.741 502.553 548.674 503.62C547.581 504.7 546.228 505.24 544.614 505.24C543.014 505.24 541.681 504.707 540.614 503.64ZM546.994 502.14C547.568 501.513 547.854 500.727 547.854 499.78V499.74C547.854 498.793 547.554 497.993 546.954 497.34C546.328 496.673 545.548 496.34 544.614 496.34C543.668 496.34 542.894 496.667 542.294 497.32C541.721 497.947 541.434 498.74 541.434 499.7V499.74C541.434 500.66 541.734 501.453 542.334 502.12C542.961 502.787 543.734 503.12 544.654 503.12C545.614 503.12 546.394 502.793 546.994 502.14ZM551.351 494.44H553.831L555.951 501.68L558.291 494.4H560.371L562.711 501.68L564.871 494.44H567.311L563.851 505.08H561.671L559.311 497.86L556.931 505.08H554.771L551.351 494.44ZM575.874 504.38C575.127 503.78 574.754 502.973 574.754 501.96V501.92C574.754 500.813 575.16 499.96 575.974 499.36C576.734 498.8 577.78 498.52 579.114 498.52C580.114 498.52 581.06 498.667 581.954 498.96V498.7C581.954 497.167 581.08 496.4 579.334 496.4C578.387 496.4 577.38 496.62 576.314 497.06L575.674 495.16C576.94 494.587 578.267 494.3 579.654 494.3C581.227 494.3 582.394 494.693 583.154 495.48C583.914 496.213 584.294 497.3 584.294 498.74V505H581.934V503.68C581.067 504.707 579.92 505.22 578.494 505.22C577.454 505.22 576.58 504.94 575.874 504.38ZM581.194 502.84C581.727 502.427 581.994 501.88 581.994 501.2V500.48C581.274 500.2 580.474 500.06 579.594 500.06C577.94 500.06 577.114 500.647 577.114 501.82V501.86C577.114 502.34 577.314 502.733 577.714 503.04C578.1 503.32 578.587 503.46 579.174 503.46C579.987 503.46 580.66 503.253 581.194 502.84ZM587.192 494.44H589.612V496.06C590.479 494.833 591.579 494.22 592.912 494.22C594.085 494.22 595.012 494.587 595.692 495.32C596.345 496.027 596.672 497.007 596.672 498.26V505H594.252V499C594.252 497.28 593.499 496.42 591.992 496.42C591.285 496.42 590.712 496.653 590.272 497.12C589.832 497.573 589.612 498.213 589.612 499.04V505H587.192V494.44ZM600.574 503.8C599.561 502.773 599.054 501.42 599.054 499.74V499.7C599.054 498.007 599.554 496.653 600.554 495.64C601.501 494.693 602.634 494.22 603.954 494.22C605.421 494.22 606.621 494.84 607.554 496.08V490.4H609.974V505H607.554V503.24C606.621 504.56 605.421 505.22 603.954 505.22C602.648 505.22 601.521 504.747 600.574 503.8ZM606.674 502.18C607.288 501.553 607.594 500.74 607.594 499.74V499.7C607.594 498.713 607.288 497.893 606.674 497.24C606.101 496.627 605.388 496.32 604.534 496.32C603.694 496.32 602.981 496.62 602.394 497.22C601.794 497.833 601.494 498.66 601.494 499.7V499.74C601.494 500.74 601.794 501.56 602.394 502.2C602.968 502.813 603.681 503.12 604.534 503.12C605.374 503.12 606.088 502.807 606.674 502.18ZM619.52 503.64C618.454 502.573 617.92 501.287 617.92 499.78V499.74C617.92 498.207 618.454 496.907 619.52 495.84C620.627 494.76 621.974 494.22 623.56 494.22C625.147 494.22 626.487 494.753 627.58 495.82C628.647 496.887 629.18 498.18 629.18 499.7V499.74C629.18 501.26 628.647 502.553 627.58 503.62C626.487 504.7 625.134 505.24 623.52 505.24C621.92 505.24 620.587 504.707 619.52 503.64ZM625.9 502.14C626.474 501.513 626.76 500.727 626.76 499.78V499.74C626.76 498.793 626.46 497.993 625.86 497.34C625.234 496.673 624.454 496.34 623.52 496.34C622.574 496.34 621.8 496.667 621.2 497.32C620.627 497.947 620.34 498.74 620.34 499.7V499.74C620.34 500.66 620.64 501.453 621.24 502.12C621.867 502.787 622.64 503.12 623.56 503.12C624.52 503.12 625.3 502.793 625.9 502.14ZM632.145 502.08V496.52H630.805V494.44H632.145V491.54H634.565V494.44H637.405V496.52H634.565V501.7C634.565 502.58 634.998 503.02 635.865 503.02C636.385 503.02 636.885 502.9 637.365 502.66V504.64C636.725 505 635.998 505.18 635.185 505.18C633.158 505.18 632.145 504.147 632.145 502.08ZM639.868 490.4H642.288V496.06C643.154 494.833 644.254 494.22 645.588 494.22C646.761 494.22 647.688 494.587 648.368 495.32C649.021 496.027 649.348 497.007 649.348 498.26V505H646.928V499C646.928 497.28 646.174 496.42 644.668 496.42C643.961 496.42 643.388 496.653 642.948 497.12C642.508 497.573 642.288 498.213 642.288 499.04V505H639.868V490.4ZM653.25 503.72C652.21 502.693 651.69 501.373 651.69 499.76V499.72C651.69 498.187 652.17 496.893 653.13 495.84C654.117 494.76 655.357 494.22 656.85 494.22C658.45 494.22 659.717 494.787 660.65 495.92C661.49 496.96 661.91 498.287 661.91 499.9C661.91 499.967 661.903 500.06 661.89 500.18C661.89 500.287 661.883 500.42 661.87 500.58H654.11C654.257 501.42 654.603 502.08 655.15 502.56C655.697 503.027 656.363 503.26 657.15 503.26C658.203 503.26 659.157 502.84 660.01 502L661.43 503.26C660.337 504.58 658.897 505.24 657.11 505.24C655.55 505.24 654.263 504.733 653.25 503.72ZM659.51 498.98C659.43 498.153 659.163 497.493 658.71 497C658.23 496.467 657.603 496.2 656.83 496.2C656.11 496.2 655.497 496.46 654.99 496.98C654.497 497.473 654.197 498.14 654.09 498.98H659.51ZM664.34 494.44H666.76V496.82C667.507 495.02 668.754 494.16 670.5 494.24V496.8H670.36C669.267 496.8 668.4 497.147 667.76 497.84C667.094 498.587 666.76 499.633 666.76 500.98V505H664.34V494.44ZM679.263 504.12C678.609 503.387 678.283 502.4 678.283 501.16V494.44H680.703V500.44C680.703 502.147 681.456 503 682.963 503C683.669 503 684.243 502.773 684.683 502.32C685.123 501.853 685.343 501.213 685.343 500.4V494.44H687.783V505H685.343V503.36C684.503 504.6 683.403 505.22 682.043 505.22C680.869 505.22 679.943 504.853 679.263 504.12ZM689.945 503.62L691.025 501.98C692.212 502.847 693.365 503.28 694.485 503.28C695.578 503.28 696.125 502.9 696.125 502.14V502.1C696.125 501.74 695.885 501.44 695.405 501.2C695.285 501.133 695.085 501.053 694.805 500.96C694.538 500.867 694.192 500.753 693.765 500.62C692.752 500.34 692.005 500.02 691.525 499.66C690.818 499.14 690.465 498.427 690.465 497.52V497.48C690.465 496.507 690.832 495.72 691.565 495.12C692.258 494.547 693.145 494.26 694.225 494.26C695.598 494.26 696.892 494.66 698.105 495.46L697.145 497.18C696.038 496.513 695.045 496.18 694.165 496.18C693.178 496.18 692.685 496.527 692.685 497.22V497.26C692.685 497.593 692.925 497.893 693.405 498.16C693.538 498.227 693.738 498.307 694.005 498.4C694.285 498.493 694.638 498.613 695.065 498.76C697.252 499.44 698.345 500.467 698.345 501.84V501.88C698.345 502.947 697.965 503.78 697.205 504.38C696.498 504.927 695.572 505.2 694.425 505.2C692.772 505.2 691.278 504.673 689.945 503.62ZM701.805 503.72C700.765 502.693 700.245 501.373 700.245 499.76V499.72C700.245 498.187 700.725 496.893 701.685 495.84C702.671 494.76 703.911 494.22 705.405 494.22C707.005 494.22 708.271 494.787 709.205 495.92C710.045 496.96 710.465 498.287 710.465 499.9C710.465 499.967 710.458 500.06 710.445 500.18C710.445 500.287 710.438 500.42 710.425 500.58H702.665C702.811 501.42 703.158 502.08 703.705 502.56C704.251 503.027 704.918 503.26 705.705 503.26C706.758 503.26 707.711 502.84 708.565 502L709.985 503.26C708.891 504.58 707.451 505.24 705.665 505.24C704.105 505.24 702.818 504.733 701.805 503.72ZM708.065 498.98C707.985 498.153 707.718 497.493 707.265 497C706.785 496.467 706.158 496.2 705.385 496.2C704.665 496.2 704.051 496.46 703.545 496.98C703.051 497.473 702.751 498.14 702.645 498.98H708.065ZM712.895 494.44H715.315V496.82C716.062 495.02 717.308 494.16 719.055 494.24V496.8H718.915C717.822 496.8 716.955 497.147 716.315 497.84C715.648 498.587 715.315 499.633 715.315 500.98V505H712.895V494.44ZM720.297 503.62L721.377 501.98C722.563 502.847 723.717 503.28 724.837 503.28C725.93 503.28 726.477 502.9 726.477 502.14V502.1C726.477 501.74 726.237 501.44 725.757 501.2C725.637 501.133 725.437 501.053 725.157 500.96C724.89 500.867 724.543 500.753 724.117 500.62C723.103 500.34 722.357 500.02 721.877 499.66C721.17 499.14 720.817 498.427 720.817 497.52V497.48C720.817 496.507 721.183 495.72 721.917 495.12C722.61 494.547 723.497 494.26 724.577 494.26C725.95 494.26 727.243 494.66 728.457 495.46L727.497 497.18C726.39 496.513 725.397 496.18 724.517 496.18C723.53 496.18 723.037 496.527 723.037 497.22V497.26C723.037 497.593 723.277 497.893 723.757 498.16C723.89 498.227 724.09 498.307 724.357 498.4C724.637 498.493 724.99 498.613 725.417 498.76C727.603 499.44 728.697 500.467 728.697 501.84V501.88C728.697 502.947 728.317 503.78 727.557 504.38C726.85 504.927 725.923 505.2 724.777 505.2C723.123 505.2 721.63 504.673 720.297 503.62ZM730.436 495.62C731.663 495.393 732.236 494.767 732.156 493.74H731.116V491H733.776V493.34C733.776 495.393 732.75 496.5 730.696 496.66L730.436 495.62ZM743.016 503.64C741.976 502.573 741.456 501.287 741.456 499.78V499.74C741.456 498.207 741.976 496.913 743.016 495.86C744.069 494.767 745.382 494.22 746.956 494.22C748.649 494.22 750.056 494.827 751.176 496.04L749.656 497.66C748.816 496.78 747.909 496.34 746.936 496.34C746.056 496.34 745.329 496.667 744.756 497.32C744.169 497.987 743.876 498.78 743.876 499.7V499.74C743.876 500.673 744.169 501.473 744.756 502.14C745.356 502.793 746.116 503.12 747.036 503.12C748.022 503.12 748.936 502.687 749.776 501.82L751.236 503.26C750.062 504.58 748.622 505.24 746.916 505.24C745.356 505.24 744.056 504.707 743.016 503.64ZM754.188 503.64C753.122 502.573 752.588 501.287 752.588 499.78V499.74C752.588 498.207 753.122 496.907 754.188 495.84C755.295 494.76 756.642 494.22 758.228 494.22C759.815 494.22 761.155 494.753 762.248 495.82C763.315 496.887 763.848 498.18 763.848 499.7V499.74C763.848 501.26 763.315 502.553 762.248 503.62C761.155 504.7 759.802 505.24 758.188 505.24C756.588 505.24 755.255 504.707 754.188 503.64ZM760.568 502.14C761.142 501.513 761.428 500.727 761.428 499.78V499.74C761.428 498.793 761.128 497.993 760.528 497.34C759.902 496.673 759.122 496.34 758.188 496.34C757.242 496.34 756.468 496.667 755.868 497.32C755.295 497.947 755.008 498.74 755.008 499.7V499.74C755.008 500.66 755.308 501.453 755.908 502.12C756.535 502.787 757.308 503.12 758.228 503.12C759.188 503.12 759.968 502.793 760.568 502.14ZM767.293 503.8C766.28 502.773 765.773 501.42 765.773 499.74V499.7C765.773 498.007 766.273 496.653 767.273 495.64C768.22 494.693 769.353 494.22 770.673 494.22C772.14 494.22 773.34 494.84 774.273 496.08V490.4H776.693V505H774.273V503.24C773.34 504.56 772.14 505.22 770.673 505.22C769.366 505.22 768.24 504.747 767.293 503.8ZM773.393 502.18C774.006 501.553 774.313 500.74 774.313 499.74V499.7C774.313 498.713 774.006 497.893 773.393 497.24C772.82 496.627 772.106 496.32 771.253 496.32C770.413 496.32 769.7 496.62 769.113 497.22C768.513 497.833 768.213 498.66 768.213 499.7V499.74C768.213 500.74 768.513 501.56 769.113 502.2C769.686 502.813 770.4 503.12 771.253 503.12C772.093 503.12 772.806 502.807 773.393 502.18ZM780.203 503.72C779.163 502.693 778.643 501.373 778.643 499.76V499.72C778.643 498.187 779.123 496.893 780.083 495.84C781.07 494.76 782.31 494.22 783.803 494.22C785.403 494.22 786.67 494.787 787.603 495.92C788.443 496.96 788.863 498.287 788.863 499.9C788.863 499.967 788.856 500.06 788.843 500.18C788.843 500.287 788.836 500.42 788.823 500.58H781.063C781.21 501.42 781.556 502.08 782.103 502.56C782.65 503.027 783.316 503.26 784.103 503.26C785.156 503.26 786.11 502.84 786.963 502L788.383 503.26C787.29 504.58 785.85 505.24 784.063 505.24C782.503 505.24 781.216 504.733 780.203 503.72ZM786.463 498.98C786.383 498.153 786.116 497.493 785.663 497C785.183 496.467 784.556 496.2 783.783 496.2C783.063 496.2 782.45 496.46 781.943 496.98C781.45 497.473 781.15 498.14 781.043 498.98H786.463ZM790.433 503.62L791.513 501.98C792.7 502.847 793.853 503.28 794.973 503.28C796.067 503.28 796.613 502.9 796.613 502.14V502.1C796.613 501.74 796.373 501.44 795.893 501.2C795.773 501.133 795.573 501.053 795.293 500.96C795.027 500.867 794.68 500.753 794.253 500.62C793.24 500.34 792.493 500.02 792.013 499.66C791.307 499.14 790.953 498.427 790.953 497.52V497.48C790.953 496.507 791.32 495.72 792.053 495.12C792.747 494.547 793.633 494.26 794.713 494.26C796.087 494.26 797.38 494.66 798.593 495.46L797.633 497.18C796.527 496.513 795.533 496.18 794.653 496.18C793.667 496.18 793.173 496.527 793.173 497.22V497.26C793.173 497.593 793.413 497.893 793.893 498.16C794.027 498.227 794.227 498.307 794.493 498.4C794.773 498.493 795.127 498.613 795.553 498.76C797.74 499.44 798.833 500.467 798.833 501.84V501.88C798.833 502.947 798.453 503.78 797.693 504.38C796.987 504.927 796.06 505.2 794.913 505.2C793.26 505.2 791.767 504.673 790.433 503.62Z" fill="white"/>
<rect x="510" y="557" width="244" height="56" rx="28" fill="white"/>
<path d="M591.591 578H596.811C598.984 578 600.778 578.667 602.191 580C603.564 581.32 604.251 582.973 604.251 584.96V585C604.251 587 603.564 588.66 602.191 589.98C600.764 591.327 598.971 592 596.811 592H591.591V578ZM594.051 580.24V589.76H596.811C598.278 589.76 599.458 589.313 600.351 588.42C601.231 587.553 601.671 586.427 601.671 585.04V585C601.671 583.613 601.231 582.48 600.351 581.6C599.444 580.693 598.264 580.24 596.811 580.24H594.051ZM607.376 578H609.836V592H607.376V578ZM612.409 589.96L613.889 588.2C615.275 589.413 616.749 590.02 618.309 590.02C619.069 590.02 619.675 589.853 620.129 589.52C620.569 589.2 620.789 588.78 620.789 588.26V588.22C620.789 587.7 620.589 587.293 620.189 587C619.735 586.68 618.882 586.373 617.629 586.08C615.975 585.667 614.829 585.2 614.189 584.68C613.375 584.04 612.969 583.113 612.969 581.9V581.86C612.969 580.66 613.415 579.68 614.309 578.92C615.215 578.173 616.362 577.8 617.749 577.8C619.682 577.8 621.375 578.387 622.829 579.56L621.509 581.42C620.215 580.46 618.949 579.98 617.709 579.98C617.015 579.98 616.455 580.14 616.029 580.46C615.629 580.753 615.429 581.147 615.429 581.64V581.68C615.429 582.213 615.649 582.633 616.089 582.94C616.315 583.087 616.649 583.24 617.089 583.4C617.529 583.56 618.089 583.72 618.769 583.88C620.315 584.253 621.435 584.733 622.129 585.32C622.875 585.987 623.249 586.873 623.249 587.98V588.02C623.249 589.313 622.782 590.34 621.849 591.1C620.955 591.833 619.755 592.2 618.249 592.2C616.009 592.2 614.062 591.453 612.409 589.96ZM626.142 578H628.762L633.022 584.62L637.282 578H639.902V592H637.442V581.96L633.022 588.56H632.942L628.562 582V592H626.142V578ZM643.645 578H646.105V592H643.645V578ZM648.678 589.96L650.158 588.2C651.545 589.413 653.018 590.02 654.578 590.02C655.338 590.02 655.945 589.853 656.398 589.52C656.838 589.2 657.058 588.78 657.058 588.26V588.22C657.058 587.7 656.858 587.293 656.458 587C656.005 586.68 655.152 586.373 653.898 586.08C652.245 585.667 651.098 585.2 650.458 584.68C649.645 584.04 649.238 583.113 649.238 581.9V581.86C649.238 580.66 649.685 579.68 650.578 578.92C651.485 578.173 652.632 577.8 654.018 577.8C655.952 577.8 657.645 578.387 659.098 579.56L657.778 581.42C656.485 580.46 655.218 579.98 653.978 579.98C653.285 579.98 652.725 580.14 652.298 580.46C651.898 580.753 651.698 581.147 651.698 581.64V581.68C651.698 582.213 651.918 582.633 652.358 582.94C652.585 583.087 652.918 583.24 653.358 583.4C653.798 583.56 654.358 583.72 655.038 583.88C656.585 584.253 657.705 584.733 658.398 585.32C659.145 585.987 659.518 586.873 659.518 587.98V588.02C659.518 589.313 659.052 590.34 658.118 591.1C657.225 591.833 656.025 592.2 654.518 592.2C652.278 592.2 650.332 591.453 648.678 589.96ZM661.276 589.96L662.756 588.2C664.143 589.413 665.616 590.02 667.176 590.02C667.936 590.02 668.543 589.853 668.996 589.52C669.436 589.2 669.656 588.78 669.656 588.26V588.22C669.656 587.7 669.456 587.293 669.056 587C668.603 586.68 667.749 586.373 666.496 586.08C664.843 585.667 663.696 585.2 663.056 584.68C662.243 584.04 661.836 583.113 661.836 581.9V581.86C661.836 580.66 662.283 579.68 663.176 578.92C664.083 578.173 665.229 577.8 666.616 577.8C668.549 577.8 670.243 578.387 671.696 579.56L670.376 581.42C669.083 580.46 667.816 579.98 666.576 579.98C665.883 579.98 665.323 580.14 664.896 580.46C664.496 580.753 664.296 581.147 664.296 581.64V581.68C664.296 582.213 664.516 582.633 664.956 582.94C665.183 583.087 665.516 583.24 665.956 583.4C666.396 583.56 666.956 583.72 667.636 583.88C669.183 584.253 670.303 584.733 670.996 585.32C671.743 585.987 672.116 586.873 672.116 587.98V588.02C672.116 589.313 671.649 590.34 670.716 591.1C669.823 591.833 668.623 592.2 667.116 592.2C664.876 592.2 662.929 591.453 661.276 589.96Z" fill="#116B4B"/>
<rect x="548" y="133" width="168" height="4" rx="2" fill="white"/>
<path d="M854 423C854 399.887 848.84 377.001 838.814 355.648C828.788 334.294 814.093 314.892 795.568 298.549C777.043 282.206 755.05 269.242 730.845 260.397C706.641 251.552 680.699 247 654.5 247C628.301 247 602.359 251.552 578.155 260.397C553.95 269.242 531.957 282.206 513.432 298.549C494.907 314.892 480.212 334.294 470.186 355.648C460.16 377.001 455 399.887 455 423L654.5 423H854Z" fill="#71E6BC" fill-opacity="0.3"/>
<path fill-rule="evenodd" clip-rule="evenodd" d="M830.743 335.321C841.063 323.207 848.048 308.361 846.881 291.726C843.518 243.796 776.798 254.34 763.82 278.531C750.841 302.722 752.383 364.084 769.157 368.408C775.846 370.132 790.096 365.909 804.599 357.167L795.496 421.57H849.248L830.743 335.321Z" fill="#B28B67"/>
<path fill-rule="evenodd" clip-rule="evenodd" d="M740.006 244.996C741.12 241.083 744.114 237.733 748.148 236.739C749.127 236.498 750.137 236.401 751.144 236.441C751.505 236.456 751.607 236.56 751.775 236.307C751.9 236.12 751.903 235.663 751.955 235.443C752.115 234.759 752.316 234.083 752.563 233.425C753.407 231.18 754.826 229.193 756.536 227.519C759.735 224.388 764.058 222.227 768.549 221.836C771.006 221.622 773.446 222.022 775.77 222.821C776.973 223.235 778.14 223.751 779.276 224.32C779.618 224.492 780.728 225.332 781.071 225.277C781.45 225.217 782.212 224.275 782.52 224.039C786.331 221.115 791.037 219.966 795.783 220.001C801.14 220.04 806.299 220.308 810.767 223.574C811.713 224.265 812.613 225.022 813.471 225.819C813.923 226.239 814.36 226.674 814.777 227.128C815.029 227.401 815.274 227.681 815.51 227.968C815.911 228.456 815.846 228.616 816.407 228.276C818.557 226.97 821.049 226.359 823.559 226.667C825.049 226.85 826.499 227.298 827.876 227.887C828.345 228.087 829.43 228.887 829.929 228.895C830.425 228.902 831.495 228.161 832.005 227.973C834.763 226.955 837.735 226.704 840.634 227.174C843.623 227.659 846.56 228.852 849.094 230.501C850.312 231.294 851.375 232.172 852.229 233.351C852.597 233.86 852.931 234.399 853.348 234.871C853.593 235.147 854.078 235.431 854.209 235.78C854.13 235.571 857.479 234.28 857.795 234.198C859.478 233.758 861.192 233.847 862.84 234.39C865.94 235.41 868.605 237.697 870.796 240.042C871.921 241.247 872.906 242.578 873.742 243.997C874.142 244.677 874.509 245.375 874.844 246.089C875.006 246.435 875.114 246.868 875.328 247.179C875.603 247.581 875.789 247.588 876.288 247.763C878.825 248.652 881.137 250.156 882.898 252.189C884.679 254.245 885.835 256.777 886.32 259.444C886.348 259.601 886.365 260.252 886.457 260.337C886.583 260.454 887.093 260.403 887.286 260.425C887.955 260.504 888.618 260.62 889.273 260.775C890.48 261.061 891.654 261.481 892.766 262.031C897.097 264.174 900.195 268.192 901.711 272.713C903.301 277.458 903.273 282.893 901.372 287.55C901.065 288.302 900.7 289.032 900.27 289.722C900.007 290.146 899.922 290.147 900.093 290.592C900.284 291.087 900.632 291.567 900.859 292.051C901.597 293.629 902.114 295.302 902.44 297.011C902.976 299.815 903.241 302.761 902.713 305.586C902.468 306.897 902.04 308.18 901.389 309.348C901.056 309.944 900.667 310.509 900.228 311.031C900 311.303 899.758 311.562 899.505 311.81C899.36 311.952 899.17 312.076 899.047 312.234C898.746 312.621 898.683 312.303 898.838 312.87C899.055 313.663 899.546 314.446 899.847 315.217C900.157 316.012 900.438 316.818 900.694 317.632C901.213 319.28 901.652 320.959 901.926 322.665C902.454 325.943 902.361 329.435 900.811 332.442C900.148 333.729 899.197 334.857 898.044 335.735C897.48 336.165 896.868 336.535 896.227 336.839C895.897 336.995 895.476 337.063 895.326 337.381C895.164 337.724 895.405 338.405 895.459 338.788C895.936 342.121 896.175 345.621 895.184 348.887C894.271 351.896 892.262 354.552 889.653 356.311C884.593 359.722 877.771 359.53 872.453 356.799C871.067 356.087 869.77 355.203 868.614 354.16C865.668 358.125 859.606 358 855.301 356.87C849.938 355.462 845.634 351.733 843.154 346.833C839.763 350.96 832.648 349.621 830.296 345.143C829.721 344.047 829.379 342.839 829.211 341.617C829.123 340.974 829.179 340.326 829.113 339.688C829.028 338.876 828.485 338.086 828.173 337.3C827.566 335.771 827.189 334.191 827.172 332.541C827.164 331.679 827.273 330.84 827.355 329.985C827.429 329.216 827.215 328.499 827.094 327.74C828.47 327.966 830.146 327.595 831.442 327.196C832.714 326.805 833.905 325.774 834.802 324.833C836.887 322.646 838.16 319.781 839.031 316.928C840.942 310.668 840.159 303.157 833.862 299.721C830.928 298.12 822.14 298.125 818.647 298.916C814.973 299.748 810.808 307.854 810.603 308.616C810.477 309.088 810.54 309.671 810.107 309.985C809.155 310.676 807.585 309.477 806.883 308.886C805.671 307.864 804.807 306.506 804.058 305.128C802.427 302.128 801.112 298.91 800.184 295.625C799.467 293.093 799.01 290.481 798.074 288.013C797.142 285.558 795.674 283.363 793.391 281.972C790.908 280.458 788.062 279.661 785.336 278.71C782.633 277.768 779.978 276.616 777.883 274.616C777.423 274.176 776.975 273.709 776.605 273.191C776.312 272.782 776.023 272 775.577 271.741C774.884 271.338 773.872 272.386 773.273 272.767C770.315 274.645 767.848 277.264 765.858 280.126C763.879 282.972 762.255 285.711 760.936 288.889C759.957 291.246 759.346 294.264 757.625 296.196C756.856 297.059 751.144 297.58 749.294 296.827C747.444 296.074 745.37 294.119 744.749 292.894C744.113 291.64 743.961 290.262 744.233 288.889C744.393 288.081 744.719 287.326 744.897 286.533C745.048 285.867 745.184 285.237 745.508 284.626C746.123 283.469 747.174 282.638 748.44 282.29C747.122 281.075 746.03 279.621 745.274 277.995C744.489 276.307 743.823 274.253 743.634 272.4C743.481 270.895 743.718 269.335 744.542 268.042C745.406 266.685 746.938 265.799 748.262 264.953C746.239 263.369 744.506 261.444 743.082 259.312C740.313 255.165 738.6 249.939 740.006 244.996Z" fill="#191847"/>
<ellipse cx="489" cy="259" rx="31" ry="30" fill="#71E6BC" fill-opacity="0.3"/>
<ellipse cx="595.5" cy="218" rx="11.5" ry="11" fill="#71E6BC" fill-opacity="0.3"/>
<rect x="846" y="176" width="7" height="39" fill="#71E6BC" fill-opacity="0.3"/>
<rect x="830" y="199" width="7" height="39" transform="rotate(-90 830 199)" fill="#71E6BC" fill-opacity="0.3"/>
<rect x="947.953" y="284.537" width="4.40588" height="24.547" transform="rotate(40.3911 947.953 284.537)" fill="#71E6BC" fill-opacity="0.3"/>
<rect x="930.902" y="289.037" width="4.40588" height="24.547" transform="rotate(-49.6089 930.902 289.037)" fill="#71E6BC" fill-opacity="0.3"/>
<path fill-rule="evenodd" clip-rule="evenodd" d="M379.753 335.276C369.433 323.162 362.448 308.316 363.615 291.681C366.978 243.751 433.698 254.295 446.677 278.486C459.655 302.677 458.113 364.04 441.339 368.363C434.65 370.087 420.4 365.864 405.897 357.122L415 421.525H361.248L379.753 335.276Z" fill="#B28B67"/>
<path fill-rule="evenodd" clip-rule="evenodd" d="M408.585 296.974C410.643 325.635 416.085 339.966 424.913 339.966C438.156 339.966 449.392 331.559 455.202 331.559C459.438 331.559 458.492 336.86 455.684 340.79C453.368 344.032 442.087 347.158 442.087 352.184C442.087 357.211 451 353.322 451 356.304C451 361.235 452.566 370.507 444.007 370.507C435.345 370.507 410.51 367.35 406.254 354.494C403.507 346.198 401.731 329.005 400.926 302.916C400.4 302.854 399.866 302.822 399.323 302.822C391.902 302.822 385.885 308.838 385.885 316.26C385.885 320.028 387.436 323.433 389.933 325.873C386.824 330.262 383.339 334.847 379.346 339.578C364.345 330.577 353.213 304.231 367.879 278.921C371.933 266.522 381.11 259.899 391.949 256.824C400.729 253.151 409.843 252.737 417.536 254.939C432.618 256.233 446.085 260.832 449.902 263.563C449.902 277.841 447.135 282.077 423.505 281.704C417.698 284.77 413.234 290.051 408.585 296.974Z" fill="#191847"/>
<path fill-rule="evenodd" clip-rule="evenodd" d="M535.083 335.903C524.763 323.789 517.778 308.943 518.945 292.308C522.308 244.378 589.028 254.922 602.007 279.113C614.985 303.304 613.443 364.667 596.669 368.99C589.98 370.714 575.73 366.491 561.227 357.749L570.33 422.152H516.578L535.083 335.903Z" fill="#B28B67"/>
<path fill-rule="evenodd" clip-rule="evenodd" d="M589.892 263.161C588.661 262.426 586.085 260.876 584.78 260.315C584.471 260.179 582.309 258.637 582.251 258.656C580.614 259.209 575.873 261.248 575.467 263.01C575.404 263.143 575.342 263.269 575.281 263.378C574.61 264.599 573.993 265.851 573.405 267.117C572.115 269.898 571.001 272.804 569.938 275.687C567.866 281.303 566.066 287.049 564.411 292.808C562.726 298.671 561.296 304.602 559.695 310.489C557.392 318.96 554.444 327.224 552.156 335.691C550.695 341.098 549.883 346.568 550.267 352.133C550.27 352.2 550.272 352.266 550.279 352.334C550.281 352.362 550.284 352.389 550.287 352.417C550.352 353.272 550.445 354.13 550.569 354.99C550.677 355.726 550.786 356.464 550.902 357.202C552.992 353.035 554.587 348.444 556.28 344.086C556.446 343.66 556.604 343.23 556.758 342.799C557.304 341.915 557.86 341.038 558.423 340.164C561.972 334.652 565.536 329.16 568.939 323.549C575.061 313.456 581.125 303.15 588.383 293.882C590.526 291.145 592.719 288.45 594.835 285.691C596.039 284.121 597.212 282.524 598.347 280.899C599.158 279.737 602.686 275.687 601.408 273.254C600.755 272.009 593.086 265.068 589.892 263.161Z" fill="#2C2C2C"/>
<path fill-rule="evenodd" clip-rule="evenodd" d="M585.171 260.515C586.368 260.918 585.786 258.426 584.626 257.549C579.253 253.488 558.713 252.014 540.838 255.724C528.864 258.21 514.937 264.397 505.373 272.35C496.751 279.521 490.821 291.015 487.769 302.121C484.563 313.782 484.078 325.939 485.864 337.896C486.256 340.523 487.099 343.026 487.569 345.597C488.098 348.492 488.369 351.28 489.312 354.096C489.889 355.821 490.87 357.511 491.363 359.246C491.926 361.225 491.583 363.055 491.173 365.068C490.504 368.349 489.676 371.623 488.498 374.756C486.729 379.461 484.583 383.868 483.238 388.75C481.447 395.247 473.958 416.387 479.431 422.15H583.617C580.994 414.993 573.119 406.571 571.525 398.911C570.586 394.398 570.139 384.542 570.041 384.184C567.693 368 563.109 360.271 560.237 357.466C557.366 354.661 553.542 353.799 553.345 351.366C552.53 341.303 556.532 331.661 559.466 322.27C562.963 311.077 565.526 299.606 569.131 288.451C570.727 283.511 578.954 258.426 585.171 260.515Z" fill="#8991DC"/>
<path fill-rule="evenodd" clip-rule="evenodd" d="M548.639 272.094C544.71 284.56 543.865 291.214 544.71 308.247H542.783C539.182 292.173 542.387 277.041 546.216 272.094H548.639ZM495.931 304.265C503.252 322.03 506.59 332.521 527.035 346.897L525.457 348.002C505.16 336.5 499.25 322.779 494.391 305.005L495.931 304.265ZM526.012 286.186C529.338 311.402 530.309 325.806 547.632 353.388L545.789 353.952C527.96 329.936 525.134 310.334 524.292 286.325L526.012 286.186ZM506.877 361.09L508.454 359.173C529.971 365.913 527.574 379.827 554.675 393.919L552.41 395.291C528.68 385.497 523.132 364.492 506.877 361.09Z" fill="black" fill-opacity="0.2"/>
</svg> -->

<svg width="780" height="234" viewBox="0 0 780 234" fill="none" xmlns="http://www.w3.org/2000/svg">
<path fill-rule="evenodd" clip-rule="evenodd" d="M566.743 120.321C577.063 108.207 584.048 93.3612 582.881 76.7263C579.518 28.7963 512.798 39.3403 499.82 63.5312C486.841 87.7221 488.383 149.084 505.157 153.408C511.846 155.132 526.096 150.909 540.599 142.167L531.496 206.57H585.248L566.743 120.321Z" fill="#B28B67"/>
<path fill-rule="evenodd" clip-rule="evenodd" d="M476.006 29.9957C477.12 26.0831 480.114 22.7332 484.148 21.7393C485.127 21.4982 486.137 21.4009 487.144 21.4415C487.505 21.4559 487.607 21.56 487.775 21.3075C487.9 21.1202 487.903 20.6628 487.955 20.4428C488.115 19.7585 488.316 19.0828 488.563 18.4246C489.407 16.1797 490.826 14.1929 492.536 12.5192C495.735 9.38813 500.058 7.22718 504.549 6.83623C507.006 6.62237 509.446 7.02171 511.77 7.82125C512.973 8.23514 514.14 8.75053 515.276 9.32033C515.618 9.49183 516.728 10.3318 517.071 10.2774C517.45 10.2174 518.212 9.27517 518.52 9.03866C522.331 6.11509 527.037 4.96563 531.783 5.00078C537.14 5.04035 542.299 5.30804 546.767 8.57388C547.713 9.26532 548.613 10.0224 549.471 10.8194C549.923 11.239 550.36 11.6744 550.777 12.1279C551.029 12.4014 551.274 12.6812 551.51 12.9684C551.911 13.456 551.846 13.6162 552.407 13.276C554.557 11.9696 557.049 11.3586 559.559 11.667C561.049 11.8503 562.499 12.2977 563.876 12.8867C564.345 13.0871 565.43 13.8868 565.929 13.8946C566.425 13.9023 567.495 13.161 568.005 12.9726C570.763 11.9546 573.735 11.7037 576.634 12.174C579.623 12.6594 582.56 13.8523 585.094 15.5006C586.312 16.2936 587.375 17.1721 588.229 18.3511C588.597 18.8602 588.931 19.3986 589.348 19.8706C589.593 20.147 590.078 20.4306 590.209 20.7803C590.13 20.5709 593.479 19.2801 593.795 19.1976C595.478 18.7579 597.192 18.8471 598.84 19.3895C601.94 20.4095 604.605 22.697 606.796 25.0422C607.921 26.2468 608.906 27.5784 609.742 28.997C610.142 29.6765 610.509 30.3755 610.844 31.0893C611.006 31.435 611.114 31.8676 611.328 32.1791C611.603 32.5805 611.789 32.5882 612.288 32.7632C614.825 33.6519 617.137 35.1561 618.898 37.1887C620.679 39.245 621.835 41.7774 622.32 44.4441C622.348 44.6012 622.365 45.2522 622.457 45.3372C622.583 45.4543 623.093 45.4025 623.286 45.4252C623.955 45.5036 624.618 45.6202 625.273 45.7752C626.48 46.0609 627.654 46.4812 628.766 47.031C633.097 49.1742 636.195 53.1921 637.711 57.7131C639.301 62.4577 639.273 67.8935 637.372 72.5496C637.065 73.3016 636.7 74.0316 636.27 74.7221C636.007 75.146 635.922 75.147 636.093 75.5918C636.284 76.0866 636.632 76.5674 636.859 77.0509C637.597 78.6287 638.114 80.302 638.44 82.0111C638.976 84.8147 639.241 87.7609 638.713 90.5858C638.468 91.8975 638.04 93.1798 637.389 94.3481C637.056 94.9437 636.667 95.5087 636.228 96.0313C636 96.3026 635.758 96.5618 635.505 96.8101C635.36 96.9519 635.17 97.076 635.047 97.2344C634.746 97.6207 634.683 97.3031 634.838 97.8703C635.055 98.6632 635.546 99.4455 635.847 100.217C636.157 101.012 636.438 101.818 636.694 102.632C637.213 104.28 637.652 105.959 637.926 107.665C638.454 110.943 638.361 114.435 636.811 117.442C636.148 118.729 635.197 119.857 634.044 120.735C633.48 121.165 632.868 121.535 632.227 121.839C631.897 121.995 631.476 122.063 631.326 122.381C631.164 122.724 631.405 123.405 631.459 123.788C631.936 127.121 632.175 130.621 631.184 133.887C630.271 136.896 628.262 139.552 625.653 141.311C620.593 144.722 613.771 144.53 608.453 141.799C607.067 141.087 605.77 140.203 604.614 139.16C601.668 143.125 595.606 143 591.301 141.87C585.938 140.462 581.634 136.733 579.154 131.833C575.763 135.96 568.648 134.621 566.296 130.143C565.721 129.047 565.379 127.839 565.211 126.617C565.123 125.974 565.179 125.326 565.113 124.688C565.028 123.876 564.485 123.086 564.173 122.3C563.566 120.771 563.189 119.191 563.172 117.541C563.164 116.679 563.273 115.84 563.355 114.985C563.429 114.216 563.215 113.499 563.094 112.74C564.47 112.966 566.146 112.595 567.442 112.196C568.714 111.805 569.905 110.774 570.802 109.833C572.887 107.646 574.16 104.781 575.031 101.928C576.942 95.6677 576.159 88.1566 569.862 84.7207C566.928 83.1202 558.14 83.1254 554.647 83.9165C550.973 84.7482 546.808 92.8541 546.603 93.616C546.477 94.0876 546.54 94.6712 546.107 94.9854C545.155 95.6762 543.585 94.4773 542.883 93.8856C541.671 92.8644 540.807 91.5057 540.058 90.1284C538.427 87.1279 537.112 83.9101 536.184 80.6253C535.467 78.0928 535.01 75.4814 534.074 73.0135C533.142 70.5578 531.674 68.3628 529.391 66.9717C526.908 65.4584 524.062 64.6613 521.336 63.7103C518.633 62.7678 515.978 61.6158 513.883 59.6159C513.423 59.1762 512.975 58.7089 512.605 58.1911C512.312 57.7824 512.023 56.9999 511.577 56.7407C510.884 56.3376 509.872 57.386 509.273 57.7667C506.315 59.6449 503.848 62.2645 501.858 65.1261C499.879 67.9722 498.255 70.7107 496.936 73.8888C495.957 76.2458 495.346 79.2644 493.625 81.196C492.856 82.0585 487.144 82.5803 485.294 81.8273C483.444 81.0743 481.37 79.119 480.749 77.8937C480.113 76.6395 479.961 75.2618 480.233 73.8888C480.393 73.081 480.719 72.3264 480.897 71.5331C481.048 70.8666 481.184 70.2367 481.508 69.6261C482.123 68.4692 483.174 67.6376 484.44 67.2899C483.122 66.0745 482.03 64.6206 481.274 62.9953C480.489 61.3068 479.823 59.2534 479.634 57.4001C479.481 55.8949 479.718 54.3353 480.542 53.0417C481.406 51.6848 482.938 50.7995 484.262 49.953C482.239 48.3695 480.506 46.4437 479.082 44.3116C476.313 40.1653 474.6 34.9389 476.006 29.9957Z" fill="#191847"/>
<ellipse cx="225" cy="44" rx="31" ry="30" fill="#71E6BC" fill-opacity="0.3"/>
<rect x="683.953" y="69.5371" width="4.40588" height="24.547" transform="rotate(40.3911 683.953 69.5371)" fill="#71E6BC" fill-opacity="0.3"/>
<rect x="666.902" y="74.0371" width="4.40588" height="24.547" transform="rotate(-49.6089 666.902 74.0371)" fill="#71E6BC" fill-opacity="0.3"/>
<path fill-rule="evenodd" clip-rule="evenodd" d="M115.753 120.276C105.433 108.162 98.4477 93.3163 99.6149 76.6813C102.978 28.7514 169.698 39.2953 182.677 63.4863C195.655 87.6772 194.113 149.04 177.339 153.363C170.65 155.087 156.4 150.864 141.897 142.122L151 206.525H97.248L115.753 120.276Z" fill="#B28B67"/>
<path fill-rule="evenodd" clip-rule="evenodd" d="M144.585 81.974C146.643 110.635 152.085 124.966 160.913 124.966C174.156 124.966 185.392 116.559 191.202 116.559C195.438 116.559 194.492 121.86 191.684 125.79C189.368 129.032 178.087 132.158 178.087 137.184C178.087 142.211 187 138.322 187 141.304C187 146.235 188.566 155.507 180.007 155.507C171.345 155.507 146.51 152.35 142.254 139.494C139.507 131.198 137.731 114.005 136.926 87.9165C136.4 87.854 135.866 87.8219 135.323 87.8219C127.902 87.8219 121.885 93.8383 121.885 101.26C121.885 105.028 123.436 108.433 125.933 110.873C122.824 115.262 119.339 119.847 115.346 124.578C100.345 115.577 89.2132 89.2306 103.879 63.9208C107.933 51.5219 117.11 44.8992 127.949 41.8241C136.729 38.1515 145.843 37.7374 153.536 39.9391C168.618 41.2327 182.085 45.8315 185.902 48.5626C185.902 62.841 183.135 67.0774 159.505 66.704C153.698 69.7705 149.234 75.051 144.585 81.974Z" fill="#191847"/>
<path fill-rule="evenodd" clip-rule="evenodd" d="M271.083 120.903C260.763 108.789 253.778 93.9433 254.945 77.3083C258.308 29.3783 325.028 39.9223 338.007 64.1132C350.985 88.3042 349.443 149.667 332.669 153.99C325.98 155.714 311.73 151.491 297.227 142.749L306.33 207.152H252.578L271.083 120.903Z" fill="#B28B67"/>
<path fill-rule="evenodd" clip-rule="evenodd" d="M325.892 48.1613C324.661 47.4264 322.085 45.8764 320.78 45.3147C320.471 45.1795 318.309 43.6369 318.251 43.6564C316.614 44.2087 311.873 46.2479 311.467 48.0099C311.404 48.1434 311.342 48.2686 311.281 48.3781C310.61 49.5992 309.993 50.8508 309.405 52.1174C308.115 54.898 307.001 57.8042 305.938 60.6875C303.866 66.3028 302.066 72.0489 300.411 77.8081C298.726 83.671 297.296 89.6022 295.695 95.4892C293.392 103.96 290.444 112.224 288.156 120.691C286.695 126.098 285.883 131.568 286.267 137.133C286.27 137.2 286.272 137.266 286.279 137.334C286.281 137.362 286.284 137.389 286.287 137.417C286.352 138.272 286.445 139.13 286.569 139.99C286.677 140.726 286.786 141.464 286.902 142.202C288.992 138.035 290.587 133.444 292.28 129.086C292.446 128.66 292.604 128.23 292.758 127.799C293.304 126.915 293.86 126.038 294.423 125.164C297.972 119.652 301.536 114.16 304.939 108.549C311.061 98.4558 317.125 88.1496 324.383 78.8816C326.526 76.1448 328.719 73.4499 330.835 70.6907C332.039 69.1205 333.212 67.5241 334.347 65.8992C335.158 64.7373 338.686 60.6875 337.408 58.2542C336.755 57.0093 329.086 50.0678 325.892 48.1613Z" fill="#2C2C2C"/>
<path fill-rule="evenodd" clip-rule="evenodd" d="M321.171 45.5154C322.368 45.9178 321.786 43.4262 320.626 42.5495C315.253 38.4875 294.713 37.0135 276.838 40.7241C264.864 43.2099 250.937 49.3967 241.373 57.3505C232.751 64.5208 226.821 76.0151 223.769 87.1206C220.563 98.7816 220.078 110.939 221.864 122.896C222.256 125.523 223.099 128.026 223.569 130.597C224.098 133.492 224.369 136.28 225.312 139.096C225.889 140.821 226.87 142.511 227.363 144.246C227.926 146.225 227.583 148.055 227.173 150.068C226.504 153.349 225.676 156.623 224.498 159.756C222.729 164.461 220.583 168.868 219.238 173.75C217.447 180.247 209.958 201.387 215.431 207.15H319.617C316.994 199.993 309.119 191.571 307.525 183.911C306.586 179.398 306.139 169.542 306.041 169.184C303.693 153 299.109 145.271 296.237 142.466C293.366 139.661 289.542 138.799 289.345 136.366C288.53 126.303 292.532 116.661 295.466 107.27C298.963 96.0768 301.526 84.6061 305.131 73.451C306.727 68.5113 314.954 43.4262 321.171 45.5154Z" fill="#8991DC"/>
<path fill-rule="evenodd" clip-rule="evenodd" d="M284.639 57.0938C280.71 69.5596 279.865 76.2139 280.71 93.2467H278.783C275.182 77.1728 278.387 62.041 282.216 57.0938H284.639ZM231.931 89.265C239.252 107.03 242.59 117.521 263.035 131.897L261.457 133.002C241.16 121.5 235.25 107.779 230.391 90.0051L231.931 89.265ZM262.012 71.1864C265.338 96.4023 266.309 110.806 283.632 138.388L281.789 138.952C263.96 114.936 261.134 95.3341 260.292 71.3249L262.012 71.1864ZM242.877 146.09L244.454 144.173C265.971 150.913 263.574 164.827 290.675 178.919L288.41 180.291C264.68 170.497 259.132 149.492 242.877 146.09Z" fill="black" fill-opacity="0.2"/>
</svg>


