<svg width="24" height="24" xmlns="http://www.w3.org/2000/svg" fill="#ffffff">

 <g>
  <title>Layer 1</title>
  <path id="svg_1" d="m11.875,0.1875c-0.50391,0.0625 -0.87891,0.49219 -0.875,1l0,2c-0.00391,0.35938 0.18359,0.69531 0.49609,0.87891c0.3125,0.17968 0.69532,0.17968 1.00782,0c0.3125,-0.1836 0.5,-0.51953 0.49609,-0.87891l0,-2c0.00391,-0.28906 -0.12109,-0.5625 -0.33594,-0.75391c-0.26302,-0.08203 -0.52604,-0.16406 -0.78906,-0.24609zm-7.875,3.1875c-0.375,0.06641 -0.67578,0.33984 -0.78125,0.70313c-0.10547,0.36718 0.00391,0.75781 0.28125,1.01562l1.40625,1.40625c0.24219,0.29688 0.62891,0.43359 1.00391,0.34766c0.37109,-0.08594 0.66406,-0.37891 0.75,-0.75c0.08593,-0.375 -0.05078,-0.76172 -0.34766,-1.00391l-1.40625,-1.40625c-0.1875,-0.19922 -0.44531,-0.30859 -0.71875,-0.3125c-0.03125,0 -0.0625,0 -0.09375,0c-0.03125,0 -0.0625,0 -0.09375,0zm15.6875,0c-0.22656,0.03125 -0.4375,0.14453 -0.59375,0.3125l-1.40625,1.40625c-0.29687,0.24219 -0.43359,0.62891 -0.34766,1.00391c0.08594,0.37109 0.37891,0.66406 0.75,0.75c0.375,0.08593 0.76172,-0.05078 1.00391,-0.34766l1.40625,-1.40625c0.29688,-0.28516 0.38672,-0.72656 0.22656,-1.10547c-0.15625,-0.3789 -0.53515,-0.62109 -0.94531,-0.61328c-0.03125,0 -0.0625,0 -0.09375,0zm-7.6875,1.8125c-3.84375,0 -7,3.15625 -7,7c0,3.84375 3.15625,7 7,7c3.84375,0 7,-3.15625 7,-7c0,-3.84375 -3.15625,-7 -7,-7zm0,2c2.75391,0 5,2.24609 5,5c0,2.75391 -2.24609,5 -5,5c-2.75391,0 -5,-2.24609 -5,-5c0,-2.75391 2.24609,-5 5,-5zm-11.1875,4c-0.55078,0.05078 -0.95703,0.54297 -0.90625,1.09375c0.05078,0.55078 0.54297,0.95703 1.09375,0.90625l2,0c0.35938,0.00391 0.69531,-0.18359 0.87891,-0.49609c0.17968,-0.3125 0.17968,-0.69532 0,-1.00782c-0.1836,-0.3125 -0.51953,-0.5 -0.87891,-0.49609l-2,0c-0.03125,0 -0.0625,0 -0.09375,0c-0.03125,0 -0.0625,0 -0.09375,0zm20,0c-0.55078,0.05078 -0.95703,0.54297 -0.90625,1.09375c0.05078,0.55078 0.54297,0.95703 1.09375,0.90625l2,0c0.35938,0.00391 0.69531,-0.18359 0.87891,-0.49609c0.17968,-0.3125 0.17968,-0.69532 0,-1.00782c-0.1836,-0.3125 -0.51953,-0.5 -0.87891,-0.49609l-2,0c-0.03125,0 -0.0625,0 -0.09375,0c-0.03125,0 -0.0625,0 -0.09375,0zm-15.34375,6.40625c-0.21875,0.03906 -0.41406,0.14844 -0.5625,0.3125l-1.40625,1.375c-0.39844,0.38672 -0.40234,1.02344 -0.01562,1.42188c0.38671,0.39843 1.02343,0.40234 1.42187,0.01562l1.40625,-1.40625c0.32422,-0.30078 0.41016,-0.77734 0.21484,-1.17187c-0.1914,-0.39844 -0.625,-0.61719 -1.05859,-0.54688zm12.71875,0c-0.375,0.06641 -0.67578,0.33984 -0.78125,0.70313c-0.10547,0.36718 0.00391,0.75781 0.28125,1.01562l1.40625,1.40625c0.39844,0.38672 1.03516,0.38281 1.42188,-0.01562c0.38671,-0.39844 0.38281,-1.03516 -0.01563,-1.42188l-1.40625,-1.375c-0.20703,-0.22266 -0.50781,-0.33594 -0.8125,-0.3125c-0.03125,0 -0.0625,0 -0.09375,0zm-6.3125,2.59375c-0.50391,0.0625 -0.87891,0.49219 -0.875,1l0,2c-0.00391,0.35938 0.18359,0.69531 0.49609,0.87891c0.3125,0.17968 0.69532,0.17968 1.00782,0c0.3125,-0.1836 0.5,-0.51953 0.49609,-0.87891l0,-2c0.00391,-0.28906 -0.12109,-0.5625 -0.33594,-0.75391c-0.21484,-0.1914 -0.5039,-0.28125 -0.78906,-0.24609z"/>
  <ellipse ry="5.59883" rx="5.59883" id="svg_2" cy="12.2629" cx="11.85394"/>
 </g>
</svg>